<svg width="21" height="20" viewBox="0 0 21 20" fill="none" xmlns="http://www.w3.org/2000/svg">
<path d="M16.3164 15H3.81643C3.70704 14.9993 3.59974 14.97 3.50525 14.9149C3.41076 14.8597 3.33239 14.7808 3.27798 14.6859C3.22357 14.591 3.19502 14.4835 3.19519 14.3741C3.19536 14.2647 3.22423 14.1572 3.27893 14.0625C3.79377 13.1719 4.44143 10.9227 4.44143 8.125C4.44143 6.63316 5.03406 5.20242 6.08896 4.14752C7.14385 3.09263 8.57459 2.5 10.0664 2.5C11.5583 2.5 12.989 3.09263 14.0439 4.14752C15.0988 5.20242 15.6914 6.63316 15.6914 8.125C15.6914 10.9234 16.3399 13.1719 16.8555 14.0625C16.9103 14.1574 16.9391 14.2649 16.9392 14.3745C16.9393 14.484 16.9106 14.5916 16.856 14.6865C16.8015 14.7815 16.7229 14.8604 16.6282 14.9154C16.5335 14.9705 16.426 14.9996 16.3164 15Z" fill="#884B50"/>
<path d="M17.3945 13.7453C16.9609 12.9984 16.3164 10.8852 16.3164 8.125C16.3164 6.4674 15.6579 4.87769 14.4858 3.70558C13.3137 2.53348 11.724 1.875 10.0664 1.875C8.40881 1.875 6.8191 2.53348 5.647 3.70558C4.4749 4.87769 3.81642 6.4674 3.81642 8.125C3.81642 10.8859 3.1711 12.9984 2.73751 13.7453C2.62678 13.9352 2.56808 14.1509 2.56733 14.3707C2.56657 14.5905 2.62379 14.8066 2.73321 14.9973C2.84263 15.1879 3.00038 15.3463 3.19056 15.4565C3.38074 15.5667 3.59661 15.6248 3.81642 15.625H7.0047C7.14889 16.3306 7.53237 16.9647 8.09027 17.4201C8.64817 17.8756 9.34624 18.1243 10.0664 18.1243C10.7866 18.1243 11.4847 17.8756 12.0426 17.4201C12.6005 16.9647 12.9839 16.3306 13.1281 15.625H16.3164C16.5362 15.6247 16.7519 15.5665 16.942 15.4562C17.1321 15.346 17.2897 15.1875 17.399 14.9969C17.5084 14.8063 17.5655 14.5903 17.5647 14.3705C17.5639 14.1508 17.5052 13.9351 17.3945 13.7453ZM10.0664 16.875C9.67878 16.8749 9.3007 16.7546 8.98423 16.5308C8.66775 16.3069 8.42844 15.9905 8.29923 15.625H11.8336C11.7044 15.9905 11.4651 16.3069 11.1486 16.5308C10.8321 16.7546 10.4541 16.8749 10.0664 16.875ZM3.81642 14.375C4.41798 13.3406 5.06642 10.9438 5.06642 8.125C5.06642 6.79892 5.5932 5.52715 6.53088 4.58947C7.46856 3.65178 8.74033 3.125 10.0664 3.125C11.3925 3.125 12.6643 3.65178 13.6019 4.58947C14.5396 5.52715 15.0664 6.79892 15.0664 8.125C15.0664 10.9414 15.7133 13.3383 16.3164 14.375H3.81642Z" fill="#884B50"/>
</svg>
