<svg width="19" height="17" viewBox="0 0 19 17" fill="none" xmlns="http://www.w3.org/2000/svg">
<path fill-rule="evenodd" clip-rule="evenodd" d="M6.93734 7.69167C6.55292 7.69167 6.24897 7.975 6.24897 8.33333C6.24897 8.68333 6.55292 8.975 6.93734 8.975H12.3013V12.9583C12.3013 15 10.5222 16.6667 8.32302 16.6667H3.9693C1.77903 16.6667 0 15.0083 0 12.9667V3.70833C0 1.65833 1.78797 0 3.97824 0H8.3409C10.5222 0 12.3013 1.65833 12.3013 3.7V7.69167H6.93734ZM15.491 5.45017L18.0567 7.87517C18.1885 8.00017 18.2588 8.1585 18.2588 8.3335C18.2588 8.50017 18.1885 8.66684 18.0567 8.7835L15.491 11.2085C15.3592 11.3335 15.1835 11.4002 15.0165 11.4002C14.8408 11.4002 14.6651 11.3335 14.5333 11.2085C14.2697 10.9585 14.2697 10.5502 14.5333 10.3002L15.9391 8.97517H12.3015V7.69184H15.9391L14.5333 6.36684C14.2697 6.11684 14.2697 5.7085 14.5333 5.45851C14.7969 5.20017 15.2274 5.20017 15.491 5.45017Z" fill="white"/>
</svg>
