<svg width="16" height="16" viewBox="0 0 16 16" fill="none" xmlns="http://www.w3.org/2000/svg">
<rect x="0.380952" y="0.380952" width="15.2381" height="15.2381" rx="7.61905" stroke="#00C287" stroke-width="0.761905"/>
<path d="M8.32325 4.62914C8.14472 4.45062 7.85528 4.45062 7.67675 4.62914L4.76751 7.53838C4.58899 7.71691 4.58899 8.00636 4.76751 8.18488C4.94604 8.36341 5.23548 8.36341 5.41401 8.18488L8 5.59889L10.586 8.18488C10.7645 8.36341 11.054 8.36341 11.2325 8.18488C11.411 8.00636 11.411 7.71691 11.2325 7.53838L8.32325 4.62914ZM7.54286 11.0476C7.54286 11.3001 7.74753 11.5048 8 11.5048C8.25247 11.5048 8.45714 11.3001 8.45714 11.0476L7.54286 11.0476ZM7.54286 4.95239L7.54286 11.0476L8.45714 11.0476L8.45714 4.95239L7.54286 4.95239Z" fill="#00C287"/>
</svg>
