<svg width="56" height="56" viewBox="0 0 56 56" fill="none" xmlns="http://www.w3.org/2000/svg">
<path d="M33.25 28C33.25 29.0384 32.9421 30.0534 32.3652 30.9167C31.7883 31.7801 30.9684 32.453 30.0091 32.8504C29.0498 33.2477 27.9942 33.3517 26.9758 33.1491C25.9574 32.9466 25.0219 32.4465 24.2877 31.7123C23.5535 30.9781 23.0535 30.0426 22.8509 29.0242C22.6483 28.0058 22.7523 26.9502 23.1496 25.9909C23.547 25.0316 24.2199 24.2117 25.0833 23.6348C25.9466 23.0579 26.9617 22.75 28 22.75C29.3924 22.75 30.7277 23.3031 31.7123 24.2877C32.6969 25.2723 33.25 26.6076 33.25 28Z" fill="black" fill-opacity="0.04"/>
<path d="M27.25 19.75V17.5C27.25 17.3011 27.329 17.1103 27.4697 16.9697C27.6103 16.829 27.8011 16.75 28 16.75C28.1989 16.75 28.3897 16.829 28.5303 16.9697C28.671 17.1103 28.75 17.3011 28.75 17.5V19.75C28.75 19.9489 28.671 20.1397 28.5303 20.2803C28.3897 20.421 28.1989 20.5 28 20.5C27.8011 20.5 27.6103 20.421 27.4697 20.2803C27.329 20.1397 27.25 19.9489 27.25 19.75ZM34 28C34 29.1867 33.6481 30.3467 32.9888 31.3334C32.3295 32.3201 31.3925 33.0892 30.2961 33.5433C29.1997 33.9974 27.9933 34.1162 26.8295 33.8847C25.6656 33.6532 24.5965 33.0818 23.7574 32.2426C22.9182 31.4035 22.3468 30.3344 22.1153 29.1705C21.8838 28.0067 22.0026 26.8003 22.4567 25.7039C22.9108 24.6075 23.6799 23.6705 24.6666 23.0112C25.6533 22.3519 26.8133 22 28 22C29.5908 22.0017 31.1159 22.6344 32.2407 23.7593C33.3656 24.8841 33.9983 26.4092 34 28ZM32.5 28C32.5 27.11 32.2361 26.24 31.7416 25.4999C31.2471 24.7599 30.5443 24.1831 29.7221 23.8425C28.8998 23.5019 27.995 23.4128 27.1221 23.5865C26.2492 23.7601 25.4474 24.1887 24.818 24.818C24.1887 25.4474 23.7601 26.2492 23.5865 27.1221C23.4128 27.995 23.5019 28.8998 23.8425 29.7221C24.1831 30.5443 24.7599 31.2471 25.4999 31.7416C26.24 32.2361 27.11 32.5 28 32.5C29.1931 32.4988 30.337 32.0243 31.1806 31.1806C32.0243 30.337 32.4988 29.1931 32.5 28ZM21.4694 22.5306C21.6101 22.6714 21.801 22.7504 22 22.7504C22.199 22.7504 22.3899 22.6714 22.5306 22.5306C22.6714 22.3899 22.7504 22.199 22.7504 22C22.7504 21.801 22.6714 21.6101 22.5306 21.4694L21.0306 19.9694C20.8899 19.8286 20.699 19.7496 20.5 19.7496C20.301 19.7496 20.1101 19.8286 19.9694 19.9694C19.8286 20.1101 19.7496 20.301 19.7496 20.5C19.7496 20.699 19.8286 20.8899 19.9694 21.0306L21.4694 22.5306ZM21.4694 33.4694L19.9694 34.9694C19.8286 35.1101 19.7496 35.301 19.7496 35.5C19.7496 35.699 19.8286 35.8899 19.9694 36.0306C20.1101 36.1714 20.301 36.2504 20.5 36.2504C20.699 36.2504 20.8899 36.1714 21.0306 36.0306L22.5306 34.5306C22.6003 34.4609 22.6556 34.3782 22.6933 34.2872C22.731 34.1961 22.7504 34.0985 22.7504 34C22.7504 33.9015 22.731 33.8039 22.6933 33.7128C22.6556 33.6218 22.6003 33.5391 22.5306 33.4694C22.4609 33.3997 22.3782 33.3444 22.2872 33.3067C22.1961 33.269 22.0985 33.2496 22 33.2496C21.9015 33.2496 21.8039 33.269 21.7128 33.3067C21.6218 33.3444 21.5391 33.3997 21.4694 33.4694ZM34 22.75C34.0985 22.7501 34.1961 22.7307 34.2871 22.6931C34.3782 22.6555 34.4609 22.6003 34.5306 22.5306L36.0306 21.0306C36.1714 20.8899 36.2504 20.699 36.2504 20.5C36.2504 20.301 36.1714 20.1101 36.0306 19.9694C35.8899 19.8286 35.699 19.7496 35.5 19.7496C35.301 19.7496 35.1101 19.8286 34.9694 19.9694L33.4694 21.4694C33.3644 21.5743 33.2928 21.708 33.2639 21.8535C33.2349 21.9991 33.2497 22.15 33.3065 22.2871C33.3633 22.4242 33.4596 22.5414 33.583 22.6238C33.7065 22.7062 33.8516 22.7501 34 22.75ZM34.5306 33.4694C34.3899 33.3286 34.199 33.2496 34 33.2496C33.801 33.2496 33.6101 33.3286 33.4694 33.4694C33.3286 33.6101 33.2496 33.801 33.2496 34C33.2496 34.199 33.3286 34.3899 33.4694 34.5306L34.9694 36.0306C35.0391 36.1003 35.1218 36.1556 35.2128 36.1933C35.3039 36.231 35.4015 36.2504 35.5 36.2504C35.5985 36.2504 35.6961 36.231 35.7872 36.1933C35.8782 36.1556 35.9609 36.1003 36.0306 36.0306C36.1003 35.9609 36.1556 35.8782 36.1933 35.7872C36.231 35.6961 36.2504 35.5985 36.2504 35.5C36.2504 35.4015 36.231 35.3039 36.1933 35.2128C36.1556 35.1218 36.1003 35.0391 36.0306 34.9694L34.5306 33.4694ZM20.5 28C20.5 27.8011 20.421 27.6103 20.2803 27.4697C20.1397 27.329 19.9489 27.25 19.75 27.25H17.5C17.3011 27.25 17.1103 27.329 16.9697 27.4697C16.829 27.6103 16.75 27.8011 16.75 28C16.75 28.1989 16.829 28.3897 16.9697 28.5303C17.1103 28.671 17.3011 28.75 17.5 28.75H19.75C19.9489 28.75 20.1397 28.671 20.2803 28.5303C20.421 28.3897 20.5 28.1989 20.5 28ZM28 35.5C27.8011 35.5 27.6103 35.579 27.4697 35.7197C27.329 35.8603 27.25 36.0511 27.25 36.25V38.5C27.25 38.6989 27.329 38.8897 27.4697 39.0303C27.6103 39.171 27.8011 39.25 28 39.25C28.1989 39.25 28.3897 39.171 28.5303 39.0303C28.671 38.8897 28.75 38.6989 28.75 38.5V36.25C28.75 36.0511 28.671 35.8603 28.5303 35.7197C28.3897 35.579 28.1989 35.5 28 35.5ZM38.5 27.25H36.25C36.0511 27.25 35.8603 27.329 35.7197 27.4697C35.579 27.6103 35.5 27.8011 35.5 28C35.5 28.1989 35.579 28.3897 35.7197 28.5303C35.8603 28.671 36.0511 28.75 36.25 28.75H38.5C38.6989 28.75 38.8897 28.671 39.0303 28.5303C39.171 28.3897 39.25 28.1989 39.25 28C39.25 27.8011 39.171 27.6103 39.0303 27.4697C38.8897 27.329 38.6989 27.25 38.5 27.25Z" fill="white"/>
</svg>
