<svg width="270" height="231" viewBox="0 0 270 231" fill="none" xmlns="http://www.w3.org/2000/svg">
<path d="M218.352 84.3252C219.545 85.6225 220.143 87.0535 220.143 88.6182C220.143 89.8953 219.829 91.3357 219.201 92.9422C218.573 94.5487 217.858 96.0972 217.054 97.5903C216.251 99.0834 215.222 100.807 213.966 102.763H207.11C205.978 102.763 205.046 102.45 204.316 101.821C203.584 101.193 202.993 100.396 202.539 99.4276C202.086 98.4597 201.725 97.4256 201.458 96.324C201.19 95.2224 200.974 94.1775 200.81 93.1893C200.645 92.2011 200.48 91.3884 200.316 90.7498C200.398 91.9851 200.378 93.2932 200.254 94.6716C200.129 96.0499 199.826 97.3527 199.342 98.5785C198.858 99.8029 198.096 100.807 197.057 101.589C196.017 102.372 194.581 102.762 192.749 102.762C191.576 102.762 190.515 102.607 189.568 102.299C188.621 101.99 187.766 101.558 187.005 101.002L184.565 109.711C182.486 111.44 180.067 112.829 177.309 113.879C174.55 114.93 171.451 115.455 168.013 115.455C164.966 115.455 162.27 114.708 159.922 113.217C157.575 111.723 155.82 109.773 154.657 107.364C153.494 104.956 153.108 102.341 153.499 99.5208C153.891 96.7006 155.249 93.921 157.575 91.1832C159.902 88.4454 163.401 86.0059 168.075 83.8648C165.069 85.9438 163.041 88.5696 161.992 91.7394C160.942 94.9105 160.911 97.8954 161.899 100.695C162.702 102.774 164.122 104.416 166.161 105.621C168.199 106.826 170.525 107.448 173.14 107.49C176.372 107.448 179.084 106.743 181.278 105.374C183.47 104.005 185.216 102.426 186.513 100.635C184.557 98.9052 183.208 96.702 182.467 94.0263L184.599 86.0586C184.619 86.6755 184.826 87.4437 185.217 88.359C185.607 89.2756 186.164 90.1963 186.885 91.1224C187.605 92.0485 188.491 92.8315 189.54 93.4701C190.59 94.1086 191.794 94.4272 193.153 94.4272C194.099 94.4272 194.913 94.2828 195.592 93.9952C196.271 93.7077 196.837 93.327 197.29 92.8531C197.744 92.3793 198.114 91.8595 198.403 91.2939C198.69 90.7282 198.917 90.1612 199.082 89.5956C199.246 89.0299 199.369 88.5102 199.453 88.0363C199.534 87.5625 199.602 87.1818 199.653 86.8929C199.704 86.6053 199.765 86.4555 199.838 86.4447C199.911 86.4352 200.019 86.604 200.162 86.9536C200.326 87.3654 200.563 87.9729 200.872 88.7761C201.18 89.5794 201.577 90.4083 202.061 91.2615C202.545 92.116 203.132 92.8572 203.822 93.4849C204.511 94.1127 205.309 94.4272 206.215 94.4272H216.776C214.882 93.0273 212.216 90.897 208.779 88.035L211.866 75.0952C212.011 76.5357 212.726 78.0396 214.013 79.6042C215.299 81.1689 216.747 82.7443 218.352 84.3292V84.3252Z" fill="#884B50"/>
<path d="M262.255 83.6232C262.719 86.1976 263.242 92.1714 260.617 93.1609C257.182 94.4569 253.494 95.0428 250.058 96.4252C247.163 97.5889 244.733 98.9214 242.769 100.42C240.804 101.918 238.858 103.752 236.93 105.92C235.711 107.258 234.378 108.564 232.93 109.84C231.483 111.117 229.887 112.259 228.142 113.271C226.396 114.28 224.475 115.043 222.375 115.557C219.475 116.268 216.846 116.355 214.489 115.819C212.132 115.283 210.053 114.303 208.252 112.879C206.451 111.455 204.406 109.643 203.179 107.613C201.951 105.582 201.54 103.49 200.887 101.17C203.152 108.606 208.561 111.129 217.111 108.739C220.336 107.715 223.174 106.232 225.623 104.286C228.072 102.341 230.314 100.271 232.353 98.0763C234.39 95.8825 236.416 93.8967 238.429 92.1214C240.442 90.3462 242.634 89.1042 245.005 88.3968C244.507 86.1031 244.57 83.9404 245.198 81.9114C245.824 79.8823 246.677 78.0882 247.759 76.5303C248.84 74.9724 250.306 73.2997 252.157 71.511C253.812 73.162 255.3 74.5674 256.623 75.727C257.846 76.7989 259.695 77.7372 260.711 78.9724C261.581 80.0322 261.939 82.0342 262.2 83.3478C262.217 83.4355 262.235 83.5287 262.252 83.6259L262.255 83.6232ZM251.442 86.7538L256.061 85.6225C255.085 84.9286 254.179 84.2604 253.344 83.6178C252.358 82.8847 251.215 82.3474 249.913 82.0099C248.611 81.6724 247.516 81.7183 246.625 82.1476C245.734 82.5783 245.387 83.584 245.584 85.1689C245.661 85.659 245.904 86.0869 246.313 86.4528C246.721 86.82 247.332 87.0454 248.148 87.1318C248.964 87.2182 250.062 87.0927 251.442 86.7552V86.7538Z" fill="#884B50"/>
<path d="M259.47 96.8721L262.055 99.4816C256.229 99.5181 249.847 102.608 241.755 110.229L240.473 108.096C245.635 101.86 252.125 98.4529 259.471 96.8721H259.47Z" fill="#331D1F"/>
<path d="M224.4 58.4268C227.456 65.3482 229.125 71.8836 229.4 78.0342C229.675 84.1834 228.946 89.6104 227.212 94.3111C225.476 99.0132 223.139 102.624 220.197 105.145C222.06 101.951 224.892 91.8541 224.721 88.1106C224.55 84.3684 223.875 80.799 222.7 77.401C221.524 74.0044 220.528 70.1475 218.126 65.7411L224.4 58.4254V58.4268Z" fill="#331D1F"/>
<path d="M178.257 86.3191C179.169 86.9914 179.761 88.0052 180.031 89.362C180.298 90.7187 180.191 92.0012 179.708 93.2108C178.982 94.5001 177.934 95.1184 176.564 95.0644C175.194 95.0117 174.266 94.2989 173.783 92.9287C173.433 93.601 172.909 94.1788 172.211 94.6621C171.512 95.1467 170.544 95.3884 169.309 95.3884C168.074 95.3884 167.307 94.9456 166.851 94.0586C166.609 93.6023 166.474 93.092 166.447 92.5277C166.393 91.0765 166.756 89.7332 167.535 88.4966C167.319 89.5186 167.293 90.2975 167.454 90.8348C167.615 91.3721 167.87 91.7285 168.219 91.9027C168.568 92.0782 168.905 92.1646 169.228 92.1646C170.249 92.1646 171.048 92.0026 171.626 91.6813C172.203 91.3586 172.626 90.9428 172.894 90.4312C173.163 89.9209 173.337 89.3836 173.418 88.8193L174.587 89.3026C174.533 90.4582 174.386 91.4126 174.145 92.1646H179.666C178.483 90.901 177.274 89.9074 176.039 89.1824L178.255 86.3204L178.257 86.3191Z" fill="#331D1F"/>
<path d="M13.5635 102.313L11.0701 96.7074H9.95496V105.198H11.1173V99.46L13.1491 104.018H13.978L16.0097 99.3467V105.198H17.1721V96.7074H16.057L13.5635 102.313Z" fill="#331D1F"/>
<path d="M21.5339 99.0483C20.7239 99.0483 20.0962 99.2954 19.6507 99.7895C19.2052 100.284 18.9824 100.983 18.9824 101.886V102.569C18.9824 103.437 19.2133 104.107 19.6777 104.578C20.1407 105.049 20.7955 105.284 21.6392 105.284C22.0172 105.284 22.3925 105.206 22.7665 105.048C23.1404 104.89 23.4766 104.667 23.7763 104.379L22.9933 103.596C22.807 103.772 22.5937 103.908 22.3574 104.006C22.1198 104.103 21.8809 104.151 21.6392 104.151C21.1559 104.151 20.782 104.018 20.5147 103.749C20.2582 103.49 20.1259 103.121 20.1164 102.646H23.9329V102.249C23.9329 101.237 23.7236 100.451 23.3051 99.8907C22.8866 99.3305 22.2953 99.0497 21.5326 99.0497L21.5339 99.0483ZM20.1191 101.688C20.138 101.212 20.2609 100.837 20.489 100.567C20.7374 100.271 21.0871 100.123 21.5339 100.123C21.9038 100.123 22.1981 100.261 22.4182 100.537C22.6382 100.814 22.7651 101.198 22.8002 101.688H20.1178H20.1191Z" fill="#331D1F"/>
<path d="M28.342 99.0483C27.9842 99.0483 27.6562 99.1496 27.3578 99.3521C27.1216 99.5127 26.9231 99.7247 26.7598 99.9825V99.1361H25.5691V105.196H26.7598V101.36C26.7598 100.99 26.8637 100.701 27.0716 100.493C27.2795 100.285 27.5725 100.181 27.9505 100.181C28.1611 100.181 28.346 100.215 28.5053 100.281C28.6646 100.347 28.7969 100.444 28.9022 100.572L29.6785 99.5208C29.5111 99.3656 29.3153 99.2481 29.0912 99.1671C28.8671 99.0875 28.6174 99.047 28.3406 99.047L28.342 99.0483Z" fill="#331D1F"/>
<path d="M32.8375 99.0483C32.3785 99.0483 31.96 99.1253 31.5847 99.2792C31.2094 99.4331 30.907 99.6477 30.6761 99.9245L31.5456 100.52C31.7278 100.383 31.9357 100.28 32.1679 100.208C32.4001 100.136 32.6337 100.1 32.8713 100.1C33.2601 100.1 33.5611 100.211 33.7731 100.429C33.985 100.649 34.0917 100.957 34.0917 101.355V101.612H32.4217C31.74 101.612 31.2297 101.76 30.8895 102.059C30.5493 102.357 30.3792 102.807 30.3792 103.41C30.3792 104.045 30.5655 104.516 30.9367 104.824C31.308 105.131 31.8655 105.285 32.6094 105.285C32.8618 105.285 33.0886 105.26 33.2897 105.207C33.4895 105.154 33.6678 105.076 33.8244 104.971C33.9243 104.903 34.0133 104.822 34.093 104.729V105.198H35.2256V101.303C35.2256 100.587 35.0177 100.032 34.6006 99.6383C34.1834 99.2454 33.5962 99.0483 32.8375 99.0483ZM33.7542 104.169C33.5287 104.266 33.1899 104.315 32.7376 104.315C32.3245 104.315 32.0153 104.24 31.8088 104.093C31.6022 103.946 31.4997 103.718 31.4997 103.41C31.4997 103.127 31.578 102.915 31.7332 102.777C31.8885 102.639 32.1207 102.569 32.4285 102.569H34.093V103.714C34.093 103.92 33.9796 104.072 33.7542 104.169Z" fill="#331D1F"/>
<path d="M40.9942 101.881C40.7755 101.763 40.5379 101.685 40.2787 101.644C40.0195 101.604 39.7643 101.576 39.5105 101.559C39.2459 101.54 38.9989 101.519 38.7694 101.494C38.5399 101.472 38.3549 101.42 38.2145 101.339C38.0741 101.26 38.0039 101.129 38.0039 100.945C38.0039 100.668 38.1052 100.462 38.3077 100.323C38.5102 100.185 38.8139 100.115 39.2189 100.115C39.4997 100.115 39.7859 100.163 40.0802 100.261C40.3745 100.358 40.6729 100.504 40.9766 100.698L41.6948 99.8286C41.3371 99.564 40.9537 99.3669 40.5446 99.2386C40.1356 99.1104 39.6941 99.0456 39.2189 99.0456C38.44 99.0456 37.8541 99.2049 37.4612 99.5248C37.0684 99.8434 36.8713 100.324 36.8713 100.967C36.8713 101.32 36.9307 101.603 37.0495 101.813C37.1683 102.024 37.3262 102.182 37.5247 102.288C37.7231 102.395 37.9432 102.469 38.1848 102.51C38.4265 102.55 38.6695 102.581 38.9152 102.6C39.2068 102.619 39.4808 102.643 39.736 102.673C39.9911 102.703 40.1977 102.763 40.3543 102.857C40.5122 102.95 40.5905 103.109 40.5905 103.336C40.5905 103.627 40.4731 103.846 40.2368 103.993C40.0019 104.139 39.6482 104.212 39.1771 104.212C38.8612 104.212 38.5439 104.15 38.2226 104.026C37.9013 103.902 37.576 103.714 37.2452 103.466L36.5392 104.335C36.8861 104.649 37.2776 104.887 37.715 105.044C38.1524 105.202 38.6398 105.28 39.1771 105.28C40.0262 105.28 40.6607 105.118 41.0833 104.795C41.5058 104.473 41.7164 103.985 41.7164 103.336C41.7164 102.939 41.6503 102.626 41.518 102.396C41.3857 102.167 41.2102 101.994 40.9928 101.877L40.9942 101.881Z" fill="#331D1F"/>
<path d="M50.8437 100.847C51.377 100.749 51.7685 100.524 52.0169 100.172C52.2653 99.8192 52.3908 99.4304 52.3908 99.0065C52.3908 98.3058 52.187 97.7469 51.7779 97.3311C51.3689 96.9153 50.7465 96.7061 49.9095 96.7061H46.5642V105.196H50.0094C50.7762 105.196 51.3837 104.984 51.8306 104.56C52.2788 104.136 52.5015 103.578 52.5015 102.885V102.867C52.5015 102.369 52.3571 101.928 52.0668 101.542C51.7766 101.157 51.3689 100.925 50.8437 100.847ZM49.6935 97.8104C50.1917 97.8104 50.5656 97.9157 50.814 98.1249C51.0624 98.3355 51.188 98.6528 51.188 99.0767C51.188 99.4776 51.0759 99.7827 50.8518 99.9906C50.6277 100.199 50.2956 100.302 49.8569 100.302H47.7495V97.809H49.6935V97.8104ZM51.3 102.78C51.3 103.173 51.1691 103.49 50.9058 103.731C50.6426 103.973 50.1971 104.093 49.5653 104.093H47.7495V101.378H49.8569C50.3712 101.378 50.7398 101.504 50.9639 101.755C51.188 102.006 51.3 102.342 51.3 102.762V102.78Z" fill="#331D1F"/>
<path d="M57.8219 102.961C57.8219 103.339 57.7153 103.632 57.5033 103.839C57.2914 104.047 56.989 104.151 56.5948 104.151C56.2006 104.151 55.8968 104.035 55.6808 103.804C55.4648 103.574 55.3568 103.245 55.3568 102.82V99.136H54.1661V102.82C54.1661 103.602 54.3484 104.209 54.7115 104.639C55.076 105.069 55.5917 105.284 56.2613 105.284C56.7014 105.284 57.0578 105.176 57.3305 104.96C57.5452 104.79 57.7072 104.601 57.8206 104.394V105.196H59.0059V99.136H57.8206V102.961H57.8219Z" fill="#331D1F"/>
<path d="M64.7758 101.881C64.5571 101.763 64.3195 101.685 64.0603 101.644C63.8011 101.604 63.5459 101.576 63.2921 101.559C63.0275 101.54 62.7805 101.519 62.551 101.494C62.3215 101.472 62.1366 101.42 61.9962 101.339C61.8558 101.26 61.7856 101.129 61.7856 100.945C61.7856 100.668 61.8868 100.462 62.0893 100.323C62.2918 100.185 62.5956 100.115 63.0006 100.115C63.2814 100.115 63.5675 100.163 63.8618 100.261C64.1561 100.358 64.4545 100.504 64.7582 100.698L65.4765 99.8286C65.1187 99.564 64.7353 99.3669 64.3262 99.2386C63.9172 99.1104 63.4758 99.0456 63.0006 99.0456C62.2216 99.0456 61.6357 99.2049 61.2428 99.5248C60.85 99.8434 60.6529 100.324 60.6529 100.967C60.6529 101.32 60.7123 101.603 60.8311 101.813C60.9499 102.024 61.1078 102.182 61.3063 102.288C61.5047 102.395 61.7248 102.469 61.9665 102.51C62.2081 102.55 62.4511 102.581 62.6968 102.6C62.9884 102.619 63.2624 102.643 63.5176 102.673C63.7727 102.703 63.9793 102.763 64.1359 102.857C64.2938 102.95 64.3721 103.109 64.3721 103.336C64.3721 103.627 64.2547 103.846 64.0184 103.993C63.7835 104.139 63.4298 104.212 62.9587 104.212C62.6428 104.212 62.3256 104.15 62.0043 104.026C61.683 103.902 61.3576 103.714 61.0268 103.466L60.3208 104.335C60.6678 104.649 61.0593 104.887 61.498 105.044C61.9354 105.202 62.4227 105.28 62.96 105.28C63.8092 105.28 64.4437 105.118 64.8662 104.795C65.2888 104.473 65.4994 103.985 65.4994 103.336C65.4994 102.939 65.4332 102.626 65.3009 102.396C65.1686 102.167 64.9932 101.994 64.7758 101.877V101.881Z" fill="#331D1F"/>
<path d="M68.2088 96.7074H67.0181V97.8981H68.2088V96.7074Z" fill="#331D1F"/>
<path d="M68.2088 99.136H67.0181V105.196H68.2088V99.136Z" fill="#331D1F"/>
<path d="M72.8218 99.0483C72.4559 99.0483 72.1225 99.1483 71.8201 99.3467C71.5798 99.5047 71.3773 99.7166 71.2099 99.9798V99.1361H70.0192V105.196H71.2099V101.36C71.2099 100.986 71.3165 100.695 71.5285 100.49C71.7404 100.284 72.0415 100.181 72.4303 100.181C72.8191 100.181 73.1471 100.298 73.3672 100.531C73.5872 100.764 73.6966 101.095 73.6966 101.523V105.196H74.8873V101.517C74.8873 100.732 74.7077 100.123 74.3473 99.6923C73.9868 99.2616 73.4779 99.047 72.8204 99.047L72.8218 99.0483Z" fill="#331D1F"/>
<path d="M79.0749 99.0483C78.2649 99.0483 77.6372 99.2954 77.1917 99.7895C76.7462 100.284 76.5234 100.983 76.5234 101.886V102.569C76.5234 103.437 76.7556 104.107 77.2187 104.578C77.6817 105.049 78.3351 105.284 79.1802 105.284C79.5582 105.284 79.9335 105.206 80.3075 105.048C80.6814 104.89 81.0176 104.667 81.3173 104.379L80.5356 103.596C80.3493 103.772 80.136 103.908 79.8998 104.006C79.6635 104.103 79.4232 104.151 79.1816 104.151C78.6983 104.151 78.3243 104.018 78.057 103.749C77.8005 103.49 77.6682 103.121 77.6588 102.646H81.4752V102.249C81.4752 101.237 81.266 100.451 80.8475 99.8907C80.429 99.3305 79.8377 99.0497 79.0749 99.0497V99.0483ZM77.6601 101.688C77.679 101.212 77.8019 100.837 78.03 100.567C78.2784 100.271 78.6281 100.123 79.0749 100.123C79.4448 100.123 79.7391 100.261 79.9592 100.537C80.1792 100.814 80.3061 101.198 80.3412 101.688H77.6588H77.6601Z" fill="#331D1F"/>
<path d="M87.0683 101.881C86.8496 101.763 86.612 101.685 86.3528 101.644C86.0936 101.604 85.8384 101.576 85.5846 101.559C85.32 101.54 85.073 101.519 84.8435 101.494C84.614 101.47 84.429 101.42 84.2886 101.339C84.1482 101.26 84.078 101.129 84.078 100.945C84.078 100.668 84.1793 100.462 84.3818 100.323C84.5843 100.185 84.888 100.115 85.293 100.115C85.5738 100.115 85.86 100.163 86.1543 100.261C86.4486 100.358 86.747 100.504 87.0507 100.698L87.7689 99.8286C87.4112 99.564 87.0278 99.3669 86.6187 99.2386C86.2097 99.1104 85.7682 99.0456 85.293 99.0456C84.5141 99.0456 83.9282 99.2049 83.5353 99.5248C83.1425 99.8434 82.9454 100.324 82.9454 100.967C82.9454 101.32 83.0048 101.603 83.1236 101.813C83.2424 102.024 83.4003 102.182 83.6001 102.288C83.7986 102.395 84.0186 102.469 84.2603 102.51C84.5019 102.55 84.7449 102.581 84.9906 102.6C85.2822 102.619 85.5563 102.643 85.8114 102.673C86.0666 102.703 86.2731 102.763 86.4297 102.857C86.5877 102.95 86.666 103.109 86.666 103.336C86.666 103.627 86.5485 103.846 86.3123 103.993C86.076 104.139 85.7237 104.212 85.2525 104.212C84.9366 104.212 84.6194 104.15 84.2981 104.026C83.9768 103.902 83.6514 103.714 83.3207 103.466L82.6146 104.335C82.9616 104.649 83.3531 104.887 83.7905 105.044C84.2279 105.202 84.7166 105.28 85.2525 105.28C86.1017 105.28 86.7362 105.118 87.1587 104.795C87.5813 104.473 87.7919 103.985 87.7919 103.336C87.7919 102.939 87.7257 102.626 87.5934 102.396C87.4611 102.167 87.2856 101.994 87.0683 101.877V101.881Z" fill="#331D1F"/>
<path d="M93.2688 101.881C93.0501 101.763 92.8125 101.685 92.5533 101.644C92.2941 101.604 92.039 101.576 91.7852 101.559C91.5206 101.54 91.2735 101.519 91.044 101.494C90.8145 101.472 90.6296 101.42 90.4892 101.339C90.3488 101.26 90.2786 101.129 90.2786 100.945C90.2786 100.668 90.3798 100.462 90.5823 100.323C90.7848 100.185 91.0886 100.115 91.4936 100.115C91.7744 100.115 92.0606 100.163 92.3549 100.261C92.6492 100.358 92.9475 100.504 93.2513 100.698L93.9695 99.8286C93.6117 99.564 93.2283 99.3669 92.8193 99.2386C92.4102 99.1104 91.9688 99.0456 91.4936 99.0456C90.7146 99.0456 90.1287 99.2049 89.7359 99.5248C89.343 99.8448 89.1459 100.324 89.1459 100.967C89.1459 101.32 89.2053 101.603 89.3241 101.813C89.4429 102.024 89.6009 102.182 89.8007 102.288C89.9991 102.395 90.2192 102.469 90.4608 102.51C90.7025 102.55 90.9455 102.581 91.1912 102.6C91.4828 102.619 91.7568 102.643 92.012 102.673C92.2671 102.703 92.4737 102.763 92.6303 102.857C92.7882 102.95 92.8665 103.109 92.8665 103.336C92.8665 103.627 92.7491 103.846 92.5128 103.993C92.2766 104.139 91.9242 104.212 91.4531 104.212C91.1385 104.212 90.8199 104.15 90.4986 104.026C90.1773 103.902 89.852 103.714 89.5212 103.466L88.8152 104.335C89.1621 104.649 89.5536 104.887 89.991 105.044C90.4284 105.202 90.9171 105.28 91.4531 105.28C92.3022 105.28 92.9367 105.118 93.3593 104.795C93.7818 104.473 93.9924 103.985 93.9924 103.336C93.9924 102.939 93.9263 102.626 93.794 102.396C93.6617 102.167 93.4862 101.994 93.2688 101.877V101.881Z" fill="#331D1F"/>
<path d="M103.665 101.007C103.41 100.841 103.127 100.716 102.816 100.628C102.504 100.54 102.194 100.466 101.882 100.402C101.535 100.332 101.211 100.258 100.91 100.177C100.607 100.097 100.364 99.9731 100.177 99.8057C99.9905 99.6383 99.896 99.3953 99.896 99.0753V99.0699C99.896 98.646 100.057 98.318 100.378 98.0858C100.699 97.8536 101.15 97.7388 101.729 97.7388C102.052 97.7388 102.375 97.7969 102.696 97.9143C103.017 98.0318 103.339 98.21 103.663 98.4516L104.34 97.5053C103.927 97.2056 103.503 96.9828 103.067 96.837C102.631 96.6912 102.186 96.6183 101.731 96.6183C100.774 96.6183 100.031 96.8357 99.5059 97.269C98.9807 97.7037 98.7175 98.3153 98.7175 99.105V99.1104C98.7175 99.6045 98.7998 100 98.9659 100.296C99.1319 100.591 99.3506 100.818 99.6233 100.976C99.896 101.134 100.194 101.25 100.52 101.323C100.845 101.396 101.166 101.461 101.486 101.516C101.817 101.57 102.122 101.64 102.4 101.724C102.678 101.808 102.904 101.935 103.075 102.106C103.247 102.278 103.332 102.525 103.332 102.847V102.853C103.332 103.266 103.163 103.587 102.824 103.817C102.485 104.046 102.009 104.161 101.393 104.161C100.938 104.161 100.516 104.091 100.127 103.95C99.7381 103.81 99.3817 103.599 99.0577 103.32L98.3165 104.231C98.5933 104.465 98.8903 104.659 99.2075 104.816C99.5248 104.971 99.865 105.088 100.229 105.167C100.594 105.245 100.981 105.283 101.395 105.283C102.383 105.283 103.15 105.069 103.695 104.64C104.24 104.211 104.513 103.606 104.513 102.824V102.812C104.513 102.349 104.436 101.974 104.282 101.685C104.128 101.397 103.924 101.171 103.669 101.004L103.665 101.007Z" fill="#331D1F"/>
<path d="M108.409 99.0483C107.615 99.0483 107 99.2765 106.564 99.7314C106.128 100.186 105.91 100.829 105.91 101.658V102.645C105.91 103.482 106.128 104.131 106.564 104.591C107 105.053 107.615 105.283 108.409 105.283C109.203 105.283 109.819 105.055 110.255 104.597C110.691 104.139 110.908 103.494 110.908 102.661V101.657C110.908 100.828 110.689 100.185 110.255 99.7301C109.819 99.2751 109.203 99.047 108.409 99.047V99.0483ZM109.717 102.664C109.717 103.135 109.604 103.501 109.376 103.761C109.148 104.022 108.826 104.153 108.409 104.153C107.992 104.153 107.676 104.022 107.445 103.761C107.216 103.501 107.101 103.135 107.101 102.664V101.659C107.101 101.188 107.216 100.825 107.445 100.567C107.675 100.311 107.996 100.182 108.409 100.182C108.822 100.182 109.148 100.311 109.376 100.567C109.604 100.824 109.717 101.188 109.717 101.659V102.664Z" fill="#331D1F"/>
<path d="M113.889 103.97C113.824 103.888 113.793 103.776 113.793 103.632V96.7061H112.602V103.619C112.602 104.13 112.726 104.524 112.976 104.805C113.225 105.086 113.574 105.225 114.021 105.225H114.722V104.092H114.161C114.044 104.092 113.954 104.051 113.89 103.969L113.889 103.97Z" fill="#331D1F"/>
<path d="M119.661 102.961C119.661 103.339 119.555 103.632 119.343 103.839C119.131 104.047 118.828 104.151 118.434 104.151C118.04 104.151 117.736 104.035 117.52 103.804C117.304 103.574 117.196 103.245 117.196 102.82V99.136H116.006V102.82C116.006 103.602 116.188 104.209 116.551 104.639C116.916 105.069 117.431 105.284 118.101 105.284C118.541 105.284 118.897 105.176 119.17 104.96C119.385 104.79 119.547 104.601 119.66 104.394V105.196H120.845V99.136H119.66V102.961H119.661Z" fill="#331D1F"/>
<path d="M124.004 97.373H122.814V99.1361H122.189V100.211H122.814V103.621C122.814 104.138 122.926 104.536 123.15 104.811C123.374 105.088 123.734 105.226 124.233 105.226H124.921V104.093H124.349C124.235 104.093 124.15 104.053 124.092 103.97C124.034 103.888 124.004 103.776 124.004 103.632V100.211H124.921V99.1361H124.004V97.373Z" fill="#331D1F"/>
<path d="M127.746 96.7074H126.556V97.8981H127.746V96.7074Z" fill="#331D1F"/>
<path d="M127.746 99.136H126.556V105.196H127.746V99.136Z" fill="#331D1F"/>
<path d="M131.882 99.0483C131.088 99.0483 130.472 99.2765 130.036 99.7314C129.6 100.186 129.383 100.829 129.383 101.658V102.645C129.383 103.482 129.6 104.131 130.036 104.591C130.472 105.052 131.088 105.283 131.882 105.283C132.675 105.283 133.291 105.055 133.727 104.597C134.163 104.139 134.38 103.494 134.38 102.661V101.657C134.38 100.828 134.162 100.185 133.727 99.7301C133.291 99.2751 132.675 99.047 131.882 99.047V99.0483ZM133.19 102.664C133.19 103.135 133.076 103.501 132.848 103.761C132.62 104.022 132.299 104.153 131.882 104.153C131.464 104.153 131.147 104.022 130.918 103.761C130.688 103.501 130.573 103.135 130.573 102.664V101.659C130.573 101.188 130.688 100.825 130.918 100.567C131.147 100.309 131.468 100.182 131.882 100.182C132.295 100.182 132.62 100.311 132.848 100.567C133.076 100.824 133.19 101.188 133.19 101.659V102.664Z" fill="#331D1F"/>
<path d="M138.876 99.0483C138.51 99.0483 138.177 99.1483 137.874 99.3467C137.634 99.5047 137.431 99.7166 137.264 99.9798V99.1361H136.073V105.196H137.264V101.36C137.264 100.986 137.371 100.695 137.583 100.49C137.795 100.284 138.096 100.181 138.484 100.181C138.873 100.181 139.201 100.298 139.421 100.531C139.641 100.764 139.751 101.095 139.751 101.523V105.196H140.941V101.517C140.941 100.732 140.762 100.123 140.401 99.6923C140.041 99.2616 139.532 99.047 138.875 99.047L138.876 99.0483Z" fill="#331D1F"/>
<path d="M146.713 101.881C146.494 101.763 146.256 101.685 145.997 101.644C145.738 101.604 145.483 101.576 145.229 101.559C144.964 101.54 144.717 101.519 144.488 101.494C144.258 101.472 144.073 101.42 143.933 101.339C143.793 101.26 143.722 101.129 143.722 100.945C143.722 100.668 143.824 100.462 144.026 100.323C144.229 100.185 144.532 100.115 144.937 100.115C145.218 100.115 145.504 100.163 145.799 100.261C146.093 100.358 146.391 100.504 146.695 100.698L147.413 99.8286C147.056 99.564 146.672 99.3669 146.263 99.2386C145.854 99.1104 145.413 99.0456 144.937 99.0456C144.158 99.0456 143.573 99.2049 143.18 99.5248C142.787 99.8448 142.59 100.324 142.59 100.967C142.59 101.32 142.649 101.603 142.768 101.813C142.887 102.024 143.045 102.182 143.243 102.288C143.442 102.395 143.662 102.469 143.903 102.51C144.145 102.55 144.388 102.581 144.634 102.6C144.925 102.619 145.199 102.643 145.454 102.673C145.71 102.703 145.916 102.763 146.073 102.857C146.231 102.95 146.309 103.109 146.309 103.336C146.309 103.627 146.192 103.846 145.955 103.993C145.72 104.139 145.367 104.212 144.896 104.212C144.58 104.212 144.262 104.15 143.941 104.026C143.62 103.902 143.294 103.714 142.964 103.466L142.258 104.335C142.605 104.649 142.996 104.887 143.435 105.044C143.872 105.202 144.36 105.28 144.897 105.28C145.746 105.28 146.381 105.118 146.803 104.795C147.226 104.473 147.436 103.985 147.436 103.336C147.436 102.939 147.37 102.626 147.238 102.396C147.106 102.167 146.93 101.994 146.713 101.877V101.881Z" fill="#331D1F"/>
<path d="M17.8699 79.0737L16.6239 79.1142H16.5631L16.5226 80.2995L16.5834 81.3444L16.5226 82.5297V85.8048L16.5429 86.9699L16.5226 88.0553L16.6036 90.3665C15.6991 90.9497 14.7757 91.0293 13.7308 91.0698C13.1881 91.0698 12.7062 91.0091 12.2647 90.7485C11.4817 90.1653 11.2198 89.5835 11.1793 88.598L11.4601 87.3924L11.8422 86.1869L10.9579 85.925C10.8972 86.1869 10.7568 86.5285 10.6569 86.789C10.476 87.1508 10.3356 87.5922 10.2154 88.035C10.0953 88.4967 10.0548 88.9193 10.075 89.462C10.0953 89.9439 10.0345 90.3665 10.1358 90.6878C10.2357 91.0496 10.4166 91.3506 10.6785 91.7124C10.9201 91.9136 11.0808 92.1539 11.3818 92.355C12.0042 92.7965 12.8479 92.9585 13.612 92.9976C14.1142 92.9571 14.4355 92.9369 14.7973 92.8167C15.1996 92.6561 15.5209 92.5953 15.8625 92.4144C17.0073 91.892 17.3893 90.8876 17.7916 89.8022C17.8524 89.3797 17.8915 89.0381 17.8915 88.5561L17.932 87.3708V86.1045L17.9118 85.0394L17.932 83.7934V82.6485L17.8915 81.4228L17.9523 80.3171L17.8713 79.071L17.8699 79.0737Z" fill="#331D1F"/>
<path d="M48.6527 88.7586L48.5717 87.734L48.4718 87.3722C47.4067 87.5126 46.2011 87.6732 45.1157 87.6732C44.7539 87.4721 44.4529 87.2115 44.2315 87.0509C43.7698 86.6688 43.4876 86.5284 43.4876 85.8858C43.4876 85.5848 43.7482 85.223 44.0506 84.9408C44.2922 84.8207 44.8147 84.7599 45.0752 84.7599C45.5167 84.8207 45.8987 84.8396 46.3415 85.0205C46.5832 85.2216 46.864 85.3823 47.246 85.7036L47.9899 84.8598C47.8697 84.6384 47.7482 84.3981 47.5673 84.2172C47.3257 83.8959 47.0246 83.6543 46.7236 83.5139C46.4023 83.2925 46.0607 83.2128 45.6584 83.2128C44.6743 83.2128 43.9912 83.4936 43.3472 84.2577C43.0462 84.5993 42.6236 85.8251 42.6236 86.2868C42.6034 86.6891 42.9044 87.5328 43.1866 87.9338C42.8248 87.9743 42.544 87.9338 42.0215 87.954H39.2284C38.8463 87.9743 38.4643 87.8744 38.1632 87.5517C37.9621 87.3911 37.6408 87.009 37.5004 86.7282C37.2196 85.8642 36.9374 84.98 36.7565 84.0957L35.8318 84.0755C35.4295 84.1362 35.1082 84.0552 34.687 84.1956C34.3454 84.2955 34.0646 84.6182 33.8027 84.7991C33.5611 85.0205 33.26 85.2014 33.0791 85.5024C32.878 85.8642 32.7376 86.2058 32.6377 86.5878C32.5769 86.8295 32.5378 87.2507 32.5567 87.653C32.5567 87.7137 32.5567 87.7731 32.5769 87.8339C32.2759 87.9149 31.8938 87.954 31.3106 87.954H22.9312C22.5289 87.9743 21.9673 87.9743 21.6257 87.7326C21.3638 87.5517 21.3044 86.9294 21.3044 86.3664C21.3044 85.9047 21.3652 85.4822 21.3652 85.3215L21.3449 84.0552V81.524L21.2639 80.2982L21.3449 79.1534L19.9382 79.1331L19.9787 80.1983L19.9382 82.4285L19.999 83.5139L19.9585 84.4589V84.7005L20.0192 85.7859L19.9787 86.7107V86.9523C19.999 87.2939 20.0192 87.7961 20.1394 88.2389C20.3 88.9017 20.8427 89.6456 21.5663 89.7252C21.7877 89.7657 22.0483 89.7657 22.3696 89.7657H30.749C31.2107 89.7657 31.7129 89.705 32.2759 89.4039C32.5567 89.1623 32.7376 88.9017 32.8186 88.6398C32.8591 88.6803 32.8996 88.7397 32.9387 88.8005C33.2006 89.0813 33.6218 89.2824 34.2644 89.5241C34.4251 89.5848 35.3093 89.8859 35.5901 89.9858L37.0373 90.3678L37.4788 89.3229C37.5787 89.4039 37.6597 89.4633 37.7596 89.5241C37.9405 89.705 38.3428 89.7657 38.6641 89.7657H42.8437C43.2055 89.7252 43.5673 89.705 43.9291 89.705C44.2706 89.6645 44.6527 89.5646 44.9942 89.5646L45.6571 89.4444C45.9379 89.3837 46.22 89.304 46.5008 89.2635C46.8221 89.223 47.1434 89.1636 47.4458 89.0826C47.8873 88.9827 48.2099 88.841 48.6514 88.7613L48.6527 88.7586ZM36.4555 88.4765L35.1892 88.0944L34.0646 87.6125C33.7433 87.4721 33.5219 87.3911 33.5219 87.1103C33.6218 86.8295 33.823 86.2463 34.0646 85.8237C34.5263 85.7441 35.1892 85.6631 35.5915 85.6428C35.7926 86.0843 35.9735 86.5676 36.1544 87.009C36.2948 87.3303 36.4555 87.7529 36.6769 88.1147C36.7768 88.3158 36.8578 88.4967 36.9374 88.6574L36.4555 88.4765Z" fill="#331D1F"/>
<path d="M54.6804 89.1204C54.8816 89.0003 55.022 88.8396 55.1421 88.6385C55.2231 88.5183 55.2825 88.3779 55.3635 88.2362C55.5444 87.8541 55.5444 87.6341 55.6443 87.1116C55.6443 87.0711 55.6646 87.0509 55.6646 87.0117C55.7456 86.6297 55.6443 86.2679 55.5444 85.9668C55.5039 85.8467 55.4634 85.7454 55.4243 85.6455C55.2515 85.2135 55.0274 84.8544 54.7587 84.5007C54.7979 84.3941 54.8343 84.2861 54.8613 84.1781C54.9018 83.9567 54.8816 83.7758 54.9018 83.5152C54.9018 83.4153 54.9018 83.2938 54.9221 83.1737C54.9828 82.8929 54.9626 82.5311 54.9828 82.0883L55.0638 80.5817L55.0841 79.175L53.8178 79.1345L53.8583 80.6208C53.8583 80.822 53.7975 82.8105 53.7773 83.1318C53.7773 83.2547 53.7773 83.3492 53.7759 83.4302C53.7273 83.3897 53.6801 83.3505 53.6369 83.3127C53.5559 83.252 53.456 83.1926 53.375 83.1116C53.1333 82.9307 52.9335 82.7498 52.6514 82.5689C52.2693 82.307 52.0088 82.0464 51.6267 81.825C51.2852 81.6239 50.9639 81.4025 50.6426 81.1824C50.2605 80.8814 49.8987 80.5992 49.518 80.3792L48.9753 81.906C49.5977 82.3677 50.2619 82.851 50.9247 83.252C51.8454 83.7933 52.6851 84.386 53.4884 85.0691C53.3223 85.4876 52.9862 86.0573 52.7135 86.3664C52.6325 86.4474 52.5123 86.5878 52.3719 86.708C52.272 86.8079 52.0911 86.9888 51.8495 87.1697C51.7293 87.2493 51.5484 87.3708 51.3878 87.4505C51.2676 87.5315 51.1461 87.6111 50.9855 87.6921C50.8329 87.7893 50.6574 87.8865 50.4711 87.9783C50.2929 87.9716 50.1147 87.9621 49.9406 87.9527L49.7597 89.52C49.9001 89.5808 50.4428 89.7212 50.8653 89.7414H51.2069C51.5484 89.7414 51.9102 89.7212 52.0506 89.7414C52.2518 89.7617 52.4327 89.7617 52.5933 89.7414C52.9146 89.7212 53.2157 89.6807 53.4776 89.6213C53.8394 89.5605 54.1404 89.3999 54.4415 89.2392L54.6831 89.1191L54.6804 89.1204ZM52.3301 87.9351H52.1694C52.0871 87.9351 52.002 87.9392 51.917 87.9446C52.1681 87.788 52.4138 87.6111 52.5906 87.4329C52.7513 87.3128 52.9727 87.1521 53.1536 86.9915C53.2535 86.8916 53.3547 86.8106 53.4155 86.7498C53.6369 86.5487 53.7773 86.4285 53.8974 86.2476C53.9379 86.1869 54.0378 86.0465 54.0783 86.006C54.1215 85.9425 54.1593 85.8885 54.1931 85.8359C54.2012 85.8453 54.2093 85.8561 54.2187 85.8642C54.2592 85.8845 54.2795 85.925 54.2997 85.9641C54.5211 86.2652 54.7817 87.009 54.8627 87.3708C54.6818 87.5517 54.5009 87.6719 54.1593 87.8123C53.7773 87.9527 53.2751 87.9527 52.3314 87.9324L52.3301 87.9351Z" fill="#331D1F"/>
<path d="M58.9005 89.8035L58.8398 89.763L58.8803 88.6776L58.7993 87.6327V86.5473L58.8992 85.4619L58.8789 84.3765V83.3721L58.8992 82.2665C58.8789 81.9249 58.8384 81.5834 58.8384 81.2418C58.8384 80.9003 58.8587 80.5587 58.8789 80.2374L58.779 79.1129L57.4128 79.0724L57.4736 80.2172V81.2823L57.4938 82.3272C57.4128 83.0711 57.3939 83.7542 57.3939 84.4967L57.4547 85.4808L57.3939 86.5865L57.3737 87.6314L57.4344 89.7617L58.9019 89.8022L58.9005 89.8035Z" fill="#331D1F"/>
<path d="M71.2774 89.8035C71.3381 89.381 71.3773 89.0394 71.3773 88.5575L71.4178 87.3722V86.1059L71.3975 85.0407L71.4178 83.7947V82.6499L71.3773 81.4241L71.438 80.3184L71.357 79.0724L70.111 79.1129H70.0502L70.0097 80.2982L70.0705 81.3431L70.0097 82.5284V85.8035L70.03 86.9685L70.0097 88.0539L70.0907 90.3651C69.1862 90.9483 68.2628 91.028 67.2179 91.0685C66.6752 91.0685 66.1933 91.0077 65.7505 90.7472C64.9675 90.164 64.7056 89.5821 64.6651 88.5966L64.9459 87.3911L65.3279 86.1855L64.4437 85.9236C64.3829 86.1855 64.2425 86.5271 64.1426 86.7876C63.9617 87.1494 63.8213 87.5909 63.7012 88.0337C63.581 88.4954 63.5405 88.9179 63.5608 89.4606C63.581 89.9426 63.5203 90.3651 63.6215 90.6864C63.7214 91.0482 63.9023 91.3493 64.1642 91.7111C64.4059 91.9122 64.5665 92.1525 64.8676 92.3537C65.4899 92.7951 66.3337 92.9571 67.0978 92.9963C67.6 92.9558 67.9213 92.9355 68.2831 92.8154C68.6854 92.6547 69.0067 92.594 69.3482 92.4131C70.493 91.8906 70.8751 90.8862 71.2774 89.8008V89.8035Z" fill="#331D1F"/>
<path d="M104.653 79.0535L103.267 79.0737L103.307 80.1389V81.2445L103.267 82.3502L103.347 84.44L103.367 85.5254L103.267 86.6108V87.7164C102.925 87.8366 102.383 87.9581 101.86 87.9581H99.0671C99.0603 87.9581 99.0536 87.9594 99.0468 87.9594C98.4447 87.9581 97.439 87.9581 97.0178 87.4559C96.957 87.3762 96.8976 87.2952 96.8369 87.2142C97.0583 87.194 97.2783 87.1737 97.4997 87.1535L98.0829 87.1737L98.0424 85.7468H97.3796C96.0741 85.6658 94.7876 85.1838 93.7022 84.4602C93.6023 84.3995 93.5415 84.3198 93.4416 84.2591C92.8989 83.8568 92.417 83.576 91.7136 83.576C91.2911 83.576 90.9306 83.7771 90.689 83.8973C90.2475 84.1592 89.4632 85.0826 89.1014 85.5254L89.7237 86.2692L91.1709 85.2648C91.4126 85.2041 91.7136 85.3647 92.0147 85.466C92.2752 85.547 92.5574 85.6266 92.8584 85.767C93.2405 85.9479 93.4416 86.1693 93.8223 86.3097C94.1031 86.4096 94.3853 86.5109 94.6863 86.6513C94.6458 86.6715 94.5864 86.6918 94.5257 86.712C94.0437 86.9132 93.5415 87.0941 93.0393 87.194C92.2361 87.3749 91.4315 87.7367 90.6282 87.8973C90.5081 87.9176 90.3474 87.9581 90.207 87.9581C89.906 87.9581 89.5644 87.9783 89.1216 87.9581H86.3285C85.5846 87.8973 85.3241 87.8177 85.1229 87.657C84.8421 87.4559 84.8016 87.1953 84.7814 86.4312V85.9695L84.7611 85.2459L84.8016 83.9999L84.7611 82.7741L84.8408 81.528V79.1169H83.4746L83.4341 80.2415L83.4746 81.3066L83.3936 82.4312L83.4746 83.5166L83.4543 84.7221L83.3936 85.767L83.4543 86.9523C83.4341 87.2534 83.4948 87.5355 83.5151 87.8771C83.0331 87.9378 82.5903 87.9567 82.1084 87.9567H79.3152H78.2501C78.2298 87.7758 78.2096 87.5949 78.1691 87.3938C78.1083 87.0117 78.1083 86.6904 77.9679 86.2881C77.8073 85.8656 77.6669 85.4444 77.486 85.1231C77.1849 84.5601 76.3412 84.0377 75.6972 84.0377C74.6928 84.0377 74.25 84.6398 73.8086 85.4241C73.6277 85.7454 73.4265 86.1477 73.3671 86.469C73.2672 86.951 73.2861 87.2925 73.2672 87.6341C73.247 88.197 73.4684 88.5588 73.6088 88.8599C73.7897 89.2419 73.9908 89.4228 74.3121 89.5835C74.5335 89.7441 74.8346 89.7644 75.1964 89.7644H77.3861C77.2862 90.2261 77.1647 90.8498 76.7435 91.1306C76.1414 91.5518 75.5784 91.8542 74.8143 91.8542C74.3324 91.9149 73.8504 91.9149 73.1268 91.9352L73.1673 93.0003C73.9503 93.2217 74.4134 93.4229 74.9952 93.4229C76.5423 93.4229 77.5467 92.4981 77.9288 91.0725C78.1097 90.6513 78.1502 90.3489 78.2096 89.9277C78.2096 89.867 78.2298 89.8278 78.2298 89.7671H78.7523H81.5454C82.2083 89.7671 82.8509 89.6861 83.4341 89.2446C83.5745 89.1042 83.7149 88.9841 83.8364 88.8234C83.8566 88.8842 83.8971 88.9233 83.9363 88.9638C84.1374 89.2055 84.3386 89.4458 84.6396 89.5659C85.0217 89.6861 85.3835 89.7873 85.7642 89.7671H88.5573C88.9191 89.7468 89.3606 89.7873 89.7224 89.6672C89.9438 89.5862 90.6066 89.466 90.8672 89.3864C91.1682 89.2865 91.4895 89.1447 91.8311 88.9841C92.1524 88.8437 92.4534 88.683 92.7761 88.5818C93.4997 88.3401 94.1828 87.9986 94.8456 87.6368C95.1872 87.4761 95.4882 87.3762 95.8703 87.3155C95.931 87.8379 96.0917 88.7019 96.413 89.1042C96.9152 89.7468 97.7792 89.7671 98.5028 89.7671H101.296C101.918 89.7671 102.341 89.7671 102.823 89.6469C103.164 89.5065 103.606 89.3661 103.868 89.0637C104.431 88.2996 104.651 87.6773 104.651 86.7134V85.6077C104.651 85.4471 104.63 84.7437 104.63 84.5426C104.63 84.3819 104.59 83.6988 104.59 83.5179L104.67 80.2428L104.649 79.0575L104.653 79.0535ZM75.357 88.0553C74.8953 88.0553 74.1515 88.035 74.1515 87.1305C74.1515 86.6081 74.2514 86.2868 74.493 85.925C74.6132 85.8642 74.8548 85.7643 75.2166 85.7643C75.5784 85.7643 75.9807 85.8251 76.302 86.0451C76.5234 86.1855 76.6436 86.5068 76.8852 86.8889C77.0661 87.1899 77.2065 87.5922 77.247 88.0539H75.3584L75.357 88.0553Z" fill="#331D1F"/>
<path d="M125.127 85.7238C125.046 85.3215 124.926 84.9408 124.847 84.5385L123.761 84.8004L123.54 84.9003C123.601 85.2824 123.761 85.8251 123.821 86.1869C123.881 86.4474 124.022 87.1508 124.022 87.4127C123.981 87.6341 123.902 87.8541 123.861 87.9756C123.66 88.0364 123.379 88.116 123.138 88.1363C122.595 88.0958 122.093 87.8946 121.631 87.6341C121.651 87.5733 121.671 87.4937 121.692 87.4127C121.732 87.2925 121.752 87.171 121.792 87.0509C121.912 86.7498 122.013 86.4083 122.174 85.9452L120.887 85.6239C120.767 86.4879 120.627 86.9496 120.365 87.5733C119.903 87.8744 119.279 87.9149 118.737 87.9149C118.395 87.9149 118.053 87.8541 117.812 87.734C117.671 87.6732 117.491 87.5531 117.31 87.4329C117.31 87.3924 117.289 87.3519 117.289 87.3128C117.21 87.032 117.108 86.7701 117.048 86.5487C116.948 86.1869 116.847 85.8656 116.786 85.7252L115.721 86.1477L115.298 86.2881C115.398 86.5095 115.56 86.951 115.68 87.3128C115.721 87.4127 115.761 87.4937 115.78 87.5936C115.941 87.9959 116.022 88.3577 116.162 88.7789C116.203 88.8788 116.223 88.9598 116.262 89.0394C116.382 89.4012 116.483 89.7225 116.543 90.0641C116.604 90.4259 116.663 90.7067 116.622 90.9078C116.462 91.1292 116.24 91.2089 115.839 91.4708C114.996 91.7921 114.091 92.0337 113.187 92.0729H113.067C112.524 92.0324 112.062 91.9919 111.7 91.8717C111.619 91.8312 111.54 91.811 111.479 91.7718C111.117 91.6517 110.857 91.3695 110.635 91.0685L110.554 90.9483C110.333 90.627 110.192 90.2247 110.294 89.682L110.495 88.5764L110.816 87.3303L110.052 87.1292C109.791 87.6719 109.59 88.2537 109.389 88.8369C109.249 89.2784 109.129 89.6604 109.068 90.1424C109.048 90.222 109.048 90.303 109.027 90.4029C109.007 90.8052 109.127 91.2872 109.269 91.6287C109.369 91.9703 109.57 92.3928 109.771 92.5926C109.993 92.9342 110.192 93.0746 110.475 93.296C110.836 93.4971 111.198 93.6173 111.54 93.6983C111.58 93.7185 111.621 93.7185 111.66 93.7388C112.062 93.8198 112.463 93.8198 112.906 93.8198C113.247 93.8198 113.67 93.7995 113.991 93.7388C114.032 93.7185 114.072 93.7185 114.111 93.6983C114.413 93.6375 114.674 93.5781 114.915 93.4769C115.035 93.4364 115.136 93.377 115.256 93.3162C115.437 93.1961 115.659 93.1353 115.879 93.0354C115.999 92.9949 116.12 92.9355 116.24 92.8545C116.401 92.6939 116.582 92.5535 116.743 92.4131C116.883 92.3132 117.003 92.2119 117.084 92.112C117.204 91.9311 117.285 91.7705 117.365 91.6301C117.426 91.4694 117.505 91.329 117.566 91.1481C117.686 90.6054 117.707 90.1032 117.707 89.5403C117.727 89.5605 117.767 89.5605 117.788 89.5808C118.17 89.7009 118.45 89.7414 118.792 89.7414H118.932C119.294 89.7414 119.555 89.7212 119.796 89.6415C119.877 89.6213 119.937 89.601 120.018 89.5605C120.278 89.3999 120.479 89.2797 120.66 89.1191C120.721 89.0786 120.78 89.0192 120.841 88.9584C120.861 88.9179 120.882 88.8774 120.922 88.8383C120.942 88.8788 120.983 88.899 121.003 88.9382C121.123 89.0583 121.264 89.1596 121.406 89.2595C121.607 89.3796 121.808 89.5011 122.008 89.5808C122.189 89.7009 122.369 89.7617 122.571 89.7819C122.691 89.8022 122.832 89.8022 122.953 89.8022C123.254 89.8022 123.475 89.7819 123.676 89.7212C123.877 89.6807 124.058 89.5808 124.239 89.4201C124.4 89.3391 124.52 89.219 124.621 89.0988C124.762 88.9584 124.882 88.7775 125.042 88.5966C125.083 88.436 125.123 88.2753 125.163 88.0944C125.223 87.8339 125.283 87.572 125.283 87.2507C125.283 87.09 125.262 86.9091 125.242 86.7282C125.242 86.4069 125.181 86.0451 125.122 85.7238H125.127Z" fill="#331D1F"/>
<path d="M128.805 89.8035L128.744 89.763L128.785 88.6776L128.704 87.6327V86.5473L128.804 85.4619L128.783 84.3765V83.3721L128.804 82.2665C128.783 81.9249 128.743 81.5834 128.743 81.2418C128.743 80.9003 128.763 80.5587 128.783 80.2374L128.683 79.1129L127.317 79.0724L127.378 80.2172V81.2823L127.398 82.3272C127.317 83.0711 127.298 83.7542 127.298 84.4967L127.359 85.4808L127.298 86.5865L127.278 87.6314L127.339 89.7617L128.806 89.8022L128.805 89.8035Z" fill="#331D1F"/>
<path d="M144.297 91.9932L145.664 91.6314V90.6675L144.458 90.9686L143.232 91.3911L142.448 91.6922L141.224 91.9932V92.9976L142.429 92.6966L144.297 91.9932Z" fill="#331D1F"/>
<path d="M147.512 85.925C147.492 85.4633 147.311 85.1217 147.11 84.7802C146.929 84.4184 146.707 84.1781 146.427 83.9364C146.125 83.7353 145.784 83.6151 145.361 83.6151C145.04 83.6151 144.678 83.715 144.437 83.8365C143.975 84.0377 143.272 84.8612 143.05 85.304C142.89 85.6253 142.688 86.1072 142.507 86.5298C142.286 86.9118 142.026 87.2736 141.724 87.6543C141.363 87.8757 140.74 87.9554 140.378 87.9554H134.812C134.19 87.9959 133.867 87.8757 133.566 87.815L133.426 87.7745C133.225 87.6935 133.024 87.5733 132.804 87.4329C132.704 87.1521 132.684 86.7296 132.562 86.4083C132.442 86.1072 132.301 85.7859 132.22 85.4444L130.954 85.9061C131.095 86.2071 131.115 86.6891 131.255 87.0711C131.296 87.171 131.316 87.2723 131.355 87.3722C131.475 87.7542 131.556 88.0553 131.656 88.3766C131.756 88.8788 131.817 89.1204 131.776 89.381C131.756 89.6618 131.736 89.8224 131.695 90.1046C131.575 90.326 131.354 90.5663 131.173 90.7269C131.132 90.7472 131.112 90.7877 131.073 90.8079C130.812 91.0091 130.51 91.1697 130.168 91.3709C129.666 91.4708 129.164 91.5315 128.481 91.5315V92.6372C128.843 92.8383 129.205 92.9787 129.786 92.9787H130.208C130.488 92.9585 130.73 92.9382 130.911 92.8586C131.232 92.6574 131.533 92.3969 131.795 92.1147C132.057 91.9136 132.198 91.6328 132.358 91.2912L132.419 91.1508C132.661 90.8093 132.86 89.8454 132.901 89.3823C133.041 89.4431 133.161 89.5227 133.283 89.5835C133.604 89.7441 133.926 89.7644 134.247 89.7644H139.833C140.939 89.7644 141.481 89.4836 142.144 88.6587C142.244 88.4981 142.366 88.3374 142.466 88.1768L143.169 88.4778L144.114 88.7789L145.179 89.2608L146.163 89.6024L146.706 89.5025C146.966 89.0408 147.529 87.7542 147.57 87.252C147.61 86.7903 147.529 86.3678 147.509 85.9263L147.512 85.925ZM146.367 87.7745L143.253 86.7093C143.434 86.3273 143.714 85.8858 143.956 85.4039C144.318 85.3634 144.578 85.304 144.901 85.304C145.322 85.2837 145.584 85.3836 145.865 85.6658C146.046 85.9871 146.186 86.249 146.287 86.6108C146.408 87.0927 146.468 87.4748 146.367 87.7758V87.7745Z" fill="#331D1F"/>
</svg>
