<svg width="25" height="24" viewBox="0 0 25 24" fill="none" xmlns="http://www.w3.org/2000/svg">
<path d="M23.6012 2.57812C23.8043 2.92969 23.9879 3.26562 24.152 3.58594C24.316 3.90625 24.4645 4.23047 24.5973 4.55859C24.7301 4.88672 24.8239 5.22656 24.8785 5.57812C24.9332 5.92969 24.9684 6.32031 24.984 6.75C24.984 7.36719 24.9059 7.96094 24.7496 8.53125C24.5934 9.10156 24.3668 9.64062 24.0699 10.1484C23.7731 10.6562 23.4176 11.1133 23.0035 11.5195C22.5895 11.9258 22.1324 12.2773 21.6324 12.5742C21.1324 12.8711 20.5973 13.0977 20.027 13.2539C19.4567 13.4102 18.859 13.4922 18.234 13.5C18.0543 13.5 17.8746 13.4922 17.6949 13.4766C17.5153 13.4609 17.3317 13.4375 17.1442 13.4062L7.69885 22.8516C7.32385 23.2266 6.89807 23.5117 6.42151 23.707C5.94495 23.9023 5.44104 24 4.90979 24C4.37073 24 3.86292 23.8984 3.38635 23.6953C2.90979 23.4922 2.49573 23.2109 2.14417 22.8516C1.7926 22.4922 1.51135 22.0742 1.30042 21.5977C1.08948 21.1211 0.984009 20.6133 0.984009 20.0742C0.984009 19.5508 1.08167 19.0508 1.27698 18.5742C1.47229 18.0977 1.75745 17.668 2.13245 17.2852L11.5778 7.83984C11.5465 7.66016 11.5231 7.48047 11.5074 7.30078C11.4918 7.12109 11.484 6.9375 11.484 6.75C11.484 6.13281 11.5621 5.53906 11.7184 4.96875C11.8746 4.39844 12.1012 3.85938 12.3981 3.35156C12.6949 2.84375 13.0504 2.38672 13.4645 1.98047C13.8785 1.57422 14.3356 1.22266 14.8356 0.925781C15.3356 0.628906 15.8707 0.402344 16.441 0.246094C17.0114 0.0898438 17.609 0.0078125 18.234 0C18.6559 0 19.0426 0.03125 19.3942 0.09375C19.7457 0.15625 20.0895 0.253906 20.4254 0.386719C20.7614 0.519531 21.0856 0.664062 21.3981 0.820312C21.7106 0.976562 22.0465 1.16406 22.4059 1.38281L17.7887 6L18.984 7.19531L23.6012 2.57812ZM18.234 12C18.9606 12 19.6403 11.8633 20.2731 11.5898C20.9059 11.3164 21.4606 10.9414 21.9371 10.4648C22.4137 9.98828 22.7887 9.43359 23.0621 8.80078C23.3356 8.16797 23.4762 7.48438 23.484 6.75C23.484 6.17969 23.3903 5.62891 23.2028 5.09766L18.984 9.30469L15.6793 6L19.8864 1.78125C19.3551 1.59375 18.8043 1.5 18.234 1.5C17.5074 1.5 16.8278 1.63672 16.1949 1.91016C15.5621 2.18359 15.0074 2.55859 14.5309 3.03516C14.0543 3.51172 13.6793 4.06641 13.4059 4.69922C13.1324 5.33203 12.9918 6.01562 12.984 6.75C12.984 7.02344 13.0074 7.28906 13.0543 7.54688C13.1012 7.80469 13.1559 8.0625 13.2184 8.32031L3.19885 18.3516C2.97229 18.5781 2.79651 18.8398 2.67151 19.1367C2.54651 19.4336 2.48401 19.7461 2.48401 20.0742C2.48401 20.4023 2.54651 20.7148 2.67151 21.0117C2.79651 21.3086 2.97229 21.5664 3.19885 21.7852C3.42542 22.0039 3.68323 22.1758 3.97229 22.3008C4.26135 22.4258 4.57385 22.4922 4.90979 22.5C5.23792 22.5 5.55042 22.4375 5.84729 22.3125C6.14417 22.1875 6.40588 22.0117 6.63245 21.7852L16.6637 11.7656C16.9215 11.8281 17.1793 11.8828 17.4371 11.9297C17.6949 11.9766 17.9606 12 18.234 12Z" fill="#884B50"/>
</svg>
