<svg width="21" height="20" viewBox="0 0 21 20" fill="none" xmlns="http://www.w3.org/2000/svg">
<path d="M14.9414 10C14.9414 10.8653 14.6848 11.7112 14.2041 12.4306C13.7234 13.1501 13.0401 13.7108 12.2406 14.042C11.4412 14.3731 10.5616 14.4597 9.71289 14.2909C8.86422 14.1221 8.08467 13.7054 7.47282 13.0936C6.86096 12.4817 6.44428 11.7022 6.27547 10.8535C6.10666 10.0049 6.1933 9.12519 6.52444 8.32576C6.85557 7.52633 7.41632 6.84305 8.13579 6.36232C8.85525 5.88159 9.70111 5.625 10.5664 5.625C11.7267 5.625 12.8395 6.08594 13.66 6.90641C14.4805 7.72688 14.9414 8.83968 14.9414 10Z" fill="white"/>
<path d="M9.94141 3.125V1.25C9.94141 1.08424 10.0073 0.925268 10.1245 0.808058C10.2417 0.690848 10.4006 0.625 10.5664 0.625C10.7322 0.625 10.8911 0.690848 11.0083 0.808058C11.1256 0.925268 11.1914 1.08424 11.1914 1.25V3.125C11.1914 3.29076 11.1256 3.44973 11.0083 3.56694C10.8911 3.68415 10.7322 3.75 10.5664 3.75C10.4006 3.75 10.2417 3.68415 10.1245 3.56694C10.0073 3.44973 9.94141 3.29076 9.94141 3.125ZM15.5664 10C15.5664 10.9889 15.2732 11.9556 14.7238 12.7779C14.1743 13.6001 13.3935 14.241 12.4798 14.6194C11.5662 14.9978 10.5609 15.0969 9.59095 14.9039C8.62105 14.711 7.73013 14.2348 7.03087 13.5355C6.33161 12.8363 5.85541 11.9454 5.66248 10.9755C5.46955 10.0055 5.56857 9.00021 5.94701 8.08658C6.32545 7.17295 6.96631 6.39206 7.78856 5.84265C8.6108 5.29324 9.5775 5 10.5664 5C11.892 5.00145 13.163 5.5287 14.1003 6.46606C15.0377 7.40343 15.565 8.67436 15.5664 10ZM14.3164 10C14.3164 9.25832 14.0965 8.5333 13.6844 7.91661C13.2724 7.29993 12.6867 6.81928 12.0015 6.53545C11.3162 6.25162 10.5622 6.17736 9.83482 6.32206C9.10739 6.46675 8.4392 6.8239 7.91476 7.34835C7.39031 7.8728 7.03316 8.54098 6.88846 9.26841C6.74377 9.99584 6.81803 10.7498 7.10186 11.4351C7.38569 12.1203 7.86633 12.706 8.48302 13.118C9.0997 13.5301 9.82473 13.75 10.5664 13.75C11.5607 13.749 12.5139 13.3535 13.2169 12.6505C13.92 11.9475 14.3154 10.9942 14.3164 10ZM5.12422 5.44219C5.24149 5.55946 5.40055 5.62535 5.56641 5.62535C5.73226 5.62535 5.89132 5.55946 6.00859 5.44219C6.12587 5.32491 6.19175 5.16585 6.19175 5C6.19175 4.83415 6.12587 4.67509 6.00859 4.55781L4.75859 3.30781C4.64132 3.19054 4.48226 3.12465 4.31641 3.12465C4.15055 3.12465 3.99149 3.19054 3.87422 3.30781C3.75694 3.42509 3.69106 3.58415 3.69106 3.75C3.69106 3.91585 3.75694 4.07491 3.87422 4.19219L5.12422 5.44219ZM5.12422 14.5578L3.87422 15.8078C3.75694 15.9251 3.69106 16.0841 3.69106 16.25C3.69106 16.4159 3.75694 16.5749 3.87422 16.6922C3.99149 16.8095 4.15055 16.8753 4.31641 16.8753C4.48226 16.8753 4.64132 16.8095 4.75859 16.6922L6.00859 15.4422C6.06666 15.3841 6.11273 15.3152 6.14415 15.2393C6.17558 15.1634 6.19175 15.0821 6.19175 15C6.19175 14.9179 6.17558 14.8366 6.14415 14.7607C6.11273 14.6848 6.06666 14.6159 6.00859 14.5578C5.95053 14.4997 5.88159 14.4537 5.80572 14.4223C5.72985 14.3908 5.64853 14.3747 5.56641 14.3747C5.48428 14.3747 5.40297 14.3908 5.3271 14.4223C5.25123 14.4537 5.18229 14.4997 5.12422 14.5578ZM15.5664 5.625C15.6485 5.62506 15.7298 5.60895 15.8057 5.57759C15.8816 5.54622 15.9505 5.50021 16.0086 5.44219L17.2586 4.19219C17.3759 4.07491 17.4418 3.91585 17.4418 3.75C17.4418 3.58415 17.3759 3.42509 17.2586 3.30781C17.1413 3.19054 16.9823 3.12465 16.8164 3.12465C16.6506 3.12465 16.4915 3.19054 16.3742 3.30781L15.1242 4.55781C15.0367 4.64522 14.9771 4.75663 14.953 4.87793C14.9288 4.99924 14.9412 5.12498 14.9885 5.23924C15.0359 5.35351 15.116 5.45116 15.2189 5.51982C15.3218 5.58849 15.4427 5.6251 15.5664 5.625ZM16.0086 14.5578C15.8913 14.4405 15.7323 14.3747 15.5664 14.3747C15.4006 14.3747 15.2415 14.4405 15.1242 14.5578C15.0069 14.6751 14.9411 14.8341 14.9411 15C14.9411 15.1659 15.0069 15.3249 15.1242 15.4422L16.3742 16.6922C16.4323 16.7503 16.5012 16.7963 16.5771 16.8277C16.653 16.8592 16.7343 16.8753 16.8164 16.8753C16.8985 16.8753 16.9798 16.8592 17.0557 16.8277C17.1316 16.7963 17.2005 16.7503 17.2586 16.6922C17.3167 16.6341 17.3627 16.5652 17.3942 16.4893C17.4256 16.4134 17.4418 16.3321 17.4418 16.25C17.4418 16.1679 17.4256 16.0866 17.3942 16.0107C17.3627 15.9348 17.3167 15.8659 17.2586 15.8078L16.0086 14.5578ZM4.31641 10C4.31641 9.83424 4.25056 9.67527 4.13335 9.55806C4.01614 9.44085 3.85717 9.375 3.69141 9.375H1.81641C1.65065 9.375 1.49167 9.44085 1.37446 9.55806C1.25725 9.67527 1.19141 9.83424 1.19141 10C1.19141 10.1658 1.25725 10.3247 1.37446 10.4419C1.49167 10.5592 1.65065 10.625 1.81641 10.625H3.69141C3.85717 10.625 4.01614 10.5592 4.13335 10.4419C4.25056 10.3247 4.31641 10.1658 4.31641 10ZM10.5664 16.25C10.4006 16.25 10.2417 16.3158 10.1245 16.4331C10.0073 16.5503 9.94141 16.7092 9.94141 16.875V18.75C9.94141 18.9158 10.0073 19.0747 10.1245 19.1919C10.2417 19.3092 10.4006 19.375 10.5664 19.375C10.7322 19.375 10.8911 19.3092 11.0083 19.1919C11.1256 19.0747 11.1914 18.9158 11.1914 18.75V16.875C11.1914 16.7092 11.1256 16.5503 11.0083 16.4331C10.8911 16.3158 10.7322 16.25 10.5664 16.25ZM19.3164 9.375H17.4414C17.2756 9.375 17.1167 9.44085 16.9995 9.55806C16.8823 9.67527 16.8164 9.83424 16.8164 10C16.8164 10.1658 16.8823 10.3247 16.9995 10.4419C17.1167 10.5592 17.2756 10.625 17.4414 10.625H19.3164C19.4822 10.625 19.6411 10.5592 19.7583 10.4419C19.8756 10.3247 19.9414 10.1658 19.9414 10C19.9414 9.83424 19.8756 9.67527 19.7583 9.55806C19.6411 9.44085 19.4822 9.375 19.3164 9.375Z" fill="#884B50"/>
</svg>
