<svg width="25" height="24" viewBox="0 0 25 24" fill="none" xmlns="http://www.w3.org/2000/svg">
<path d="M17.4988 6.129C18.5968 7.257 18.5968 9.074 18.5968 12.708V14.293C18.5968 17.926 18.5968 19.743 17.4988 20.871C16.4008 21.999 14.6318 22 11.0968 22C7.5618 22 5.7938 22 4.6948 20.871C3.5968 19.743 3.5968 17.926 3.5968 14.293V12.708C3.5968 9.074 3.5968 7.258 4.6948 6.128C5.7938 5 7.5608 5 11.0968 5C14.6328 5 16.3998 5 17.4988 6.129Z" stroke="#884B50" stroke-width="1.5" stroke-linecap="round" stroke-linejoin="round"/>
<path d="M8.0968 5.5V10.37C8.0968 11.305 8.0968 11.772 8.3868 11.94C8.9478 12.264 10.0008 11.182 10.5008 10.857C10.7908 10.667 10.9358 10.573 11.0968 10.573C11.2578 10.573 11.4028 10.668 11.6928 10.857C12.1928 11.182 13.2458 12.264 13.8068 11.94C14.0968 11.772 14.0968 11.305 14.0968 10.37V5.5" stroke="#884B50" stroke-width="1.5" stroke-linecap="round" stroke-linejoin="round"/>
<path d="M9.5968 2H11.5968C16.3108 2 18.6678 2 20.1318 3.464C21.5968 4.93 21.5968 7.286 21.5968 12V18" stroke="#884B50" stroke-width="1.5" stroke-linecap="round" stroke-linejoin="round"/>
</svg>
