<svg width="25" height="24" viewBox="0 0 25 24" fill="none" xmlns="http://www.w3.org/2000/svg">
<path d="M18.4032 6C18.3562 4.447 18.1832 3.52 17.5412 2.879C16.6612 2 15.2452 2 12.4132 2H8.4102C5.5782 2 4.1622 2 3.2832 2.879C2.4032 3.757 2.4032 5.172 2.4032 8V16C2.4032 18.828 2.4032 20.243 3.2832 21.121C4.1632 21.999 5.5782 22 8.4102 22H12.4142C15.2452 22 16.6612 22 17.5412 21.121C18.1832 20.48 18.3562 19.554 18.4032 18" stroke="#884B50" stroke-width="1.5" stroke-linecap="round" stroke-linejoin="round"/>
<path d="M20.6452 11.742L21.8222 10.565C22.0922 10.295 22.2282 10.159 22.3002 10.013C22.3673 9.87603 22.4022 9.72553 22.4022 9.573C22.4022 9.42047 22.3673 9.26997 22.3002 9.133C22.2282 8.987 22.0922 8.851 21.8222 8.581C21.5522 8.311 21.4162 8.175 21.2702 8.103C21.1332 8.03589 20.9827 8.001 20.8302 8.001C20.6777 8.001 20.5272 8.03589 20.3902 8.103C20.2442 8.175 20.1092 8.311 19.8382 8.581L18.6612 9.758M20.6452 11.742L15.3792 17.008L12.4032 18L13.3952 15.024L18.6612 9.758M20.6452 11.742L18.6612 9.758M5.4032 19H6.4032L7.6532 16.5L8.9032 19H9.9032M6.4032 6H14.4032M6.4032 10H12.4032" stroke="#884B50" stroke-width="1.5" stroke-linecap="round" stroke-linejoin="round"/>
</svg>
