<svg width="25" height="25" viewBox="0 0 25 25" fill="none" xmlns="http://www.w3.org/2000/svg">
<path d="M21.6196 11.91L12.7896 3.08C12.4196 2.71 11.9096 2.5 11.3796 2.5H4.20959C3.10959 2.5 2.20959 3.4 2.20959 4.5V11.67C2.20959 12.2 2.41959 12.71 2.79959 13.08L11.6296 21.91C12.4096 22.69 13.6796 22.69 14.4596 21.91L21.6296 14.74C22.4096 13.96 22.4096 12.7 21.6196 11.91ZM13.0396 20.5L4.20959 11.67V4.5H11.3796L20.2096 13.33L13.0396 20.5Z" fill="#884B50"/>
<path d="M6.70959 8.5C7.53802 8.5 8.20959 7.82843 8.20959 7C8.20959 6.17157 7.53802 5.5 6.70959 5.5C5.88117 5.5 5.20959 6.17157 5.20959 7C5.20959 7.82843 5.88117 8.5 6.70959 8.5Z" fill="#884B50"/>
</svg>
