<svg width="25" height="24" viewBox="0 0 25 24" fill="none" xmlns="http://www.w3.org/2000/svg">
<path d="M10.7904 16.5L13.7904 17.5C13.7904 17.5 21.2904 16 22.2904 16C23.2904 16 23.2904 17 22.2904 18C21.2904 19 17.7904 22 14.7904 22C11.7904 22 9.79041 20.5 7.79041 20.5H2.79041" stroke="#884B50" stroke-width="2" stroke-linecap="round" stroke-linejoin="round"/>
<path d="M2.79041 14.5C3.79041 13.5 5.79041 12 7.79041 12C9.79041 12 14.5404 14 15.2904 15C16.0404 16 13.7904 17.5 13.7904 17.5M8.79041 9V5C8.79041 4.73478 8.89576 4.48043 9.0833 4.29289C9.27084 4.10536 9.52519 4 9.79041 4H21.7904C22.0556 4 22.31 4.10536 22.4975 4.29289C22.685 4.48043 22.7904 4.73478 22.7904 5V13" stroke="#884B50" stroke-width="2" stroke-linecap="round" stroke-linejoin="round"/>
<path d="M13.2904 4H18.2904V8.5H13.2904V4Z" stroke="#884B50" stroke-width="2" stroke-linecap="round" stroke-linejoin="round"/>
</svg>
