<svg width="25" height="24" viewBox="0 0 25 24" fill="none" xmlns="http://www.w3.org/2000/svg">
<path d="M21.2035 12H19.891C19.7879 12 19.7035 12.0844 19.7035 12.1875V19.6875H4.32849V4.3125H11.8285C11.9316 4.3125 12.016 4.22812 12.016 4.125V2.8125C12.016 2.70937 11.9316 2.625 11.8285 2.625H3.39099C2.97615 2.625 2.64099 2.96016 2.64099 3.375V20.625C2.64099 21.0398 2.97615 21.375 3.39099 21.375H20.641C21.0558 21.375 21.391 21.0398 21.391 20.625V12.1875C21.391 12.0844 21.3066 12 21.2035 12Z" fill="#F6EFEF"/>
<path d="M8.35742 12.5367L8.31289 15.3234C8.31055 15.532 8.4793 15.7031 8.68789 15.7031H8.69727L11.4629 15.6352C11.5098 15.6328 11.5566 15.6141 11.5895 15.5812L21.3371 5.85469C21.4098 5.78203 21.4098 5.6625 21.3371 5.58984L18.4238 2.67891C18.3863 2.64141 18.3395 2.625 18.2902 2.625C18.241 2.625 18.1941 2.64375 18.1566 2.67891L8.41133 12.4055C8.37748 12.4409 8.35822 12.4877 8.35742 12.5367ZM9.8457 13.0898L18.2902 4.66406L19.3496 5.72109L10.9004 14.1516L9.8293 14.1773L9.8457 13.0898Z" fill="#F6EFEF"/>
</svg>
