<svg width="25" height="25" viewBox="0 0 25 25" fill="none" xmlns="http://www.w3.org/2000/svg">
<path d="M5.55038 16.637C4.00538 15.091 3.23238 14.319 2.94538 13.316C2.65738 12.313 2.90338 11.248 3.39538 9.119L3.67838 7.891C4.09138 6.099 4.29838 5.203 4.91138 4.589C5.52438 3.975 6.42138 3.769 8.21338 3.356L9.44138 3.072C11.5714 2.581 12.6354 2.335 13.6384 2.622C14.6414 2.91 15.4134 3.683 16.9584 5.228L18.7884 7.058C21.4794 9.748 22.8224 11.092 22.8224 12.762C22.8224 14.433 21.4784 15.777 18.7894 18.466C16.0994 21.156 14.7554 22.5 13.0844 22.5C11.4144 22.5 10.0694 21.156 7.38038 18.467L5.55038 16.637Z" stroke="#884B50" stroke-width="1.5"/>
<path d="M16.2124 15.89C16.7974 15.303 16.8764 14.433 16.3884 13.944C15.9004 13.455 15.0294 13.535 14.4434 14.121C13.8584 14.707 12.9874 14.786 12.4994 14.298C12.0114 13.81 12.0904 12.939 12.6764 12.354M12.6764 12.354L12.3224 12M12.6764 12.354C13.0074 12.022 13.4294 11.854 13.8224 11.857M16.5654 16.243L16.2114 15.889C15.8114 16.29 15.2764 16.454 14.8224 16.36" stroke="#884B50" stroke-width="1.5" stroke-linecap="round"/>
<path d="M10.8436 10.7932C11.6246 10.0122 11.6246 8.74586 10.8436 7.96481C10.0625 7.18377 8.79621 7.18377 8.01517 7.96481C7.23412 8.74586 7.23412 10.0122 8.01517 10.7932C8.79621 11.5743 10.0625 11.5743 10.8436 10.7932Z" stroke="#884B50" stroke-width="1.5"/>
</svg>
