<svg width="17" height="16" viewBox="0 0 17 16" fill="none" xmlns="http://www.w3.org/2000/svg">
<path d="M14.9164 14.3562C14.823 14.4481 14.6974 14.4998 14.5664 14.5C14.4336 14.4994 14.3061 14.448 14.2101 14.3562L11.5101 11.65C10.373 12.6051 8.91103 13.0844 7.42913 12.9878C5.94724 12.8912 4.55983 12.2263 3.55629 11.1316C2.55274 10.037 2.01053 8.59717 2.04274 7.11248C2.07495 5.62779 2.6791 4.21286 3.72918 3.16277C4.77926 2.11269 6.1942 1.50855 7.67889 1.47633C9.16358 1.44412 10.6034 1.98633 11.698 2.98988C12.7927 3.99343 13.4576 5.38083 13.5542 6.86273C13.6508 8.34462 13.1715 9.80659 12.2164 10.9437L14.9164 13.6437C14.9636 13.6903 15.0011 13.7457 15.0267 13.8069C15.0524 13.868 15.0655 13.9337 15.0655 14C15.0655 14.0663 15.0524 14.1319 15.0267 14.1931C15.0011 14.2542 14.9636 14.3097 14.9164 14.3562ZM7.81638 12C8.75584 12 9.67421 11.7214 10.4553 11.1995C11.2365 10.6775 11.8453 9.93567 12.2048 9.06772C12.5643 8.19977 12.6584 7.24471 12.4751 6.3233C12.2918 5.40189 11.8394 4.55552 11.1751 3.89122C10.5108 3.22692 9.66447 2.77452 8.74306 2.59124C7.82165 2.40797 6.86658 2.50203 5.99863 2.86155C5.13069 3.22106 4.38884 3.82988 3.8669 4.61102C3.34496 5.39215 3.06638 6.31051 3.06638 7.24998C3.06803 8.50925 3.56901 9.71647 4.45945 10.6069C5.34989 11.4973 6.55711 11.9983 7.81638 12Z" fill="#884B50"/>
</svg>
