<svg width="24" height="24" viewBox="0 0 24 24" fill="none" xmlns="http://www.w3.org/2000/svg">
<g clip-path="url(#clip0_276_19550)">
<path d="M23.0828 5.43775H18.372C18.3234 5.43775 18.2754 5.42816 18.2305 5.40953C18.1857 5.3909 18.145 5.36359 18.1108 5.32919C18.0765 5.29478 18.0494 5.25395 18.031 5.20903C18.0126 5.16412 18.0032 5.11601 18.0034 5.06746C18.0039 4.97812 18.0361 4.89185 18.0943 4.82403L21.4543 0.984031C21.4868 0.945954 21.5274 0.915478 21.573 0.894745C21.6186 0.874013 21.6682 0.863529 21.7183 0.864031C21.9103 0.864031 22.0663 1.02175 22.0663 1.21375V6.96175M15.1714 6.96003H11.1086V6.09432C11.109 5.79813 11.1956 5.50848 11.3578 5.26069C11.5201 5.0129 11.751 4.81769 12.0223 4.69889L14.2851 3.70975C14.5983 3.57341 14.8548 3.33329 15.0115 3.02986C15.1682 2.72643 15.2155 2.37824 15.1455 2.044C15.0754 1.70975 14.8922 1.40988 14.6268 1.19494C14.3615 0.979997 14.0301 0.863128 13.6886 0.864031H12.6326C12.3174 0.864379 12.0102 0.96229 11.7529 1.14432C11.4957 1.32634 11.3011 1.58355 11.196 1.8806M12.8674 22.3972C13.7561 22.9694 14.8139 23.2202 15.8649 23.108C16.9159 22.9957 17.8968 22.5271 18.6446 21.78L19.296 21.1286C19.5849 20.8365 19.747 20.4423 19.747 20.0315C19.747 19.6206 19.5849 19.2264 19.296 18.9343L16.5531 16.2086C16.264 15.9207 15.8726 15.7591 15.4646 15.7591C15.0565 15.7591 14.6651 15.9207 14.376 16.2086C14.0839 16.4975 13.6897 16.6596 13.2788 16.6596C12.868 16.6596 12.4738 16.4975 12.1817 16.2086L7.81027 11.8372C7.52134 11.5451 7.35927 11.1509 7.35927 10.74C7.35927 10.3292 7.52134 9.93495 7.81027 9.64289C8.09815 9.35374 8.25978 8.96234 8.25978 8.55432C8.25978 8.1463 8.09815 7.75489 7.81027 7.46575L5.17027 4.72289C4.87821 4.43395 4.48396 4.27189 4.07313 4.27189C3.6623 4.27189 3.26805 4.43395 2.97599 4.72289L2.32456 5.37432C1.56411 6.11152 1.07949 7.08723 0.951581 8.1386C0.823669 9.18998 1.0602 10.2534 1.6217 11.1515C4.60995 15.5902 8.42868 19.4089 12.8674 22.3972Z" stroke="white" stroke-width="1.71429" stroke-linecap="round" stroke-linejoin="round"/>
</g>
<defs>
<clipPath id="clip0_276_19550">
<rect width="24" height="24" fill="white"/>
</clipPath>
</defs>
</svg>
