<svg width="24" height="24" viewBox="0 0 24 24" fill="none" xmlns="http://www.w3.org/2000/svg">
<g clip-path="url(#clip0_276_19557)">
<path d="M10.8651 6.34295C10.7473 6.00824 10.5286 5.71833 10.239 5.51322C9.94947 5.30811 9.6034 5.19791 9.24857 5.19781H7.92C7.5431 5.19886 7.17984 5.33892 6.89978 5.59116C6.61973 5.84339 6.44257 6.19008 6.40223 6.56481C6.36189 6.93954 6.46121 7.31599 6.68116 7.62205C6.90112 7.92811 7.22624 8.14227 7.59428 8.22352L9.61371 8.66581C10.0269 8.75599 10.3922 8.99575 10.6393 9.33897C10.8865 9.6822 10.998 10.1047 10.9525 10.5251C10.907 10.9456 10.7076 11.3344 10.3928 11.6168C10.0779 11.8992 9.66979 12.0553 9.24685 12.0549H8.10343C7.749 12.0551 7.40324 11.9454 7.11374 11.7409C6.82424 11.5365 6.60523 11.2473 6.48685 10.9132M8.67771 5.19781V3.48352M8.67771 13.7692V12.0549M11.9469 23.1412V14.1412C11.9469 13.5729 12.1726 13.0279 12.5745 12.626C12.9763 12.2241 13.5214 11.9984 14.0897 11.9984C14.658 11.9984 15.2031 12.2241 15.6049 12.626C16.0068 13.0279 16.2326 13.5729 16.2326 14.1412V18.8555H19.6611C20.5705 18.8555 21.4425 19.2167 22.0855 19.8597C22.7285 20.5027 23.0897 21.3748 23.0897 22.2841V23.1412" stroke="white" stroke-width="1.71429" stroke-linecap="round" stroke-linejoin="round"/>
<path d="M8.67942 16.3955C7.09779 16.3952 5.5539 15.9122 4.2542 15.0109C2.95449 14.1096 1.9609 12.833 1.40628 11.3518C0.851655 9.87058 0.762427 8.25536 1.15053 6.72207C1.53863 5.18879 2.38556 3.81052 3.57808 2.77155C4.7706 1.73257 6.25188 1.08241 7.82388 0.907981C9.39587 0.733555 10.9836 1.04318 12.3749 1.79546C13.7662 2.54774 14.8947 3.70681 15.6095 5.11772C16.3242 6.52863 16.5913 8.12413 16.3749 9.69089" stroke="white" stroke-width="1.71429" stroke-linecap="round"/>
</g>
<defs>
<clipPath id="clip0_276_19557">
<rect width="24" height="24" fill="white"/>
</clipPath>
</defs>
</svg>
