<svg width="24" height="24" viewBox="0 0 24 24" fill="none" xmlns="http://www.w3.org/2000/svg">
<g clip-path="url(#clip0_276_19566)">
<path d="M7.2 13.6H6.4C6.4 13.8122 6.48429 14.0157 6.63432 14.1657C6.78434 14.3157 6.98783 14.4 7.2 14.4V13.6ZM13.6 13.6V14.4C13.8122 14.4 14.0157 14.3157 14.1657 14.1657C14.3157 14.0157 14.4 13.8122 14.4 13.6H13.6ZM13.6 9.6H14.4C14.4002 9.49487 14.3797 9.39074 14.3396 9.29355C14.2995 9.19636 14.2406 9.10803 14.1664 9.0336L13.6 9.6ZM10.4 6.4L10.9664 5.8336C10.8921 5.7591 10.8038 5.69999 10.7066 5.65966C10.6094 5.61933 10.5052 5.59857 10.4 5.59857C10.2948 5.59857 10.1906 5.61933 10.0934 5.65966C9.99619 5.69999 9.90791 5.7591 9.8336 5.8336L10.4 6.4ZM7.2 9.6L6.6336 9.0336C6.55936 9.10803 6.50051 9.19636 6.46043 9.29355C6.42035 9.39074 6.39981 9.49487 6.4 9.6H7.2ZM23.7664 22.6336L17.3664 16.2336L16.2336 17.3664L22.6336 23.7664L23.7664 22.6336ZM10.4 19.2C8.0661 19.2 5.82778 18.2729 4.17746 16.6225C2.52714 14.9722 1.6 12.7339 1.6 10.4H0C0 13.1583 1.09571 15.8035 3.04609 17.7539C4.99647 19.7043 7.64175 20.8 10.4 20.8V19.2ZM19.2 10.4C19.2 12.7339 18.2729 14.9722 16.6225 16.6225C14.9722 18.2729 12.7339 19.2 10.4 19.2V20.8C13.1583 20.8 15.8035 19.7043 17.7539 17.7539C19.7043 15.8035 20.8 13.1583 20.8 10.4H19.2ZM10.4 1.6C12.7339 1.6 14.9722 2.52714 16.6225 4.17746C18.2729 5.82778 19.2 8.0661 19.2 10.4H20.8C20.8 7.64175 19.7043 4.99647 17.7539 3.04609C15.8035 1.09571 13.1583 0 10.4 0V1.6ZM10.4 0C7.64175 0 4.99647 1.09571 3.04609 3.04609C1.09571 4.99647 0 7.64175 0 10.4H1.6C1.6 8.0661 2.52714 5.82778 4.17746 4.17746C5.82778 2.52714 8.0661 1.6 10.4 1.6V0ZM7.2 14.4H13.6V12.8H7.2V14.4ZM14.4 13.6V9.6H12.8V13.6H14.4ZM14.1664 9.0336L10.9664 5.8336L9.8336 6.9664L13.0336 10.1664L14.1664 9.0336ZM9.8336 5.8336L6.6336 9.0336L7.7664 10.1664L10.9664 6.9664L9.8336 5.8336ZM6.4 9.6V13.6H8V9.6H6.4Z" fill="white"/>
</g>
<defs>
<clipPath id="clip0_276_19566">
<rect width="24" height="24" fill="white"/>
</clipPath>
</defs>
</svg>
