<svg width="21" height="20" viewBox="0 0 21 20" fill="none" xmlns="http://www.w3.org/2000/svg">
<path d="M4.41442 15.2287C4.02 15.2287 3.65874 15.1326 3.33061 14.9403C3.00249 14.7448 2.74065 14.483 2.5451 14.1548C2.35286 13.8267 2.25675 13.4654 2.25675 13.071C2.25675 12.6733 2.35286 12.3104 2.5451 11.9822C2.74065 11.6541 3.00249 11.3923 3.33061 11.1967C3.65874 11.0012 4.02 10.9034 4.41442 10.9034H5.56783V8.90483H4.41442C4.02 8.90483 3.65874 8.80871 3.33061 8.61648C3.00249 8.42093 2.74065 8.16075 2.5451 7.83594C2.35286 7.50781 2.25675 7.14489 2.25675 6.74716C2.25675 6.34943 2.35286 5.98816 2.5451 5.66335C2.74065 5.33523 3.00249 5.07505 3.33061 4.88281C3.65874 4.68726 4.02 4.58949 4.41442 4.58949C4.81214 4.58949 5.17507 4.68726 5.5032 4.88281C5.83132 5.07505 6.09316 5.33523 6.28871 5.66335C6.48426 5.98816 6.58203 6.34943 6.58203 6.74716V7.89062H8.58061V6.74716C8.58061 6.34943 8.67673 5.98816 8.86896 5.66335C9.06451 5.33523 9.32469 5.07505 9.6495 4.88281C9.97763 4.68726 10.3406 4.58949 10.7383 4.58949C11.136 4.58949 11.4973 4.68726 11.8221 4.88281C12.1502 5.07505 12.4104 5.33523 12.6026 5.66335C12.7982 5.98816 12.896 6.34943 12.896 6.74716C12.896 7.14489 12.7982 7.50781 12.6026 7.83594C12.4104 8.16075 12.1502 8.42093 11.8221 8.61648C11.4973 8.80871 11.136 8.90483 10.7383 8.90483H9.59482V10.9034H10.7383C11.136 10.9034 11.4973 11.0012 11.8221 11.1967C12.1502 11.3923 12.4104 11.6541 12.6026 11.9822C12.7982 12.3104 12.896 12.6733 12.896 13.071C12.896 13.4654 12.7982 13.8267 12.6026 14.1548C12.4104 14.483 12.1502 14.7448 11.8221 14.9403C11.4973 15.1326 11.136 15.2287 10.7383 15.2287C10.3406 15.2287 9.97763 15.1326 9.6495 14.9403C9.32469 14.7448 9.06451 14.483 8.86896 14.1548C8.67673 13.8267 8.58061 13.4654 8.58061 13.071V11.9176H6.58203V13.071C6.58203 13.4654 6.48426 13.8267 6.28871 14.1548C6.09316 14.483 5.83132 14.7448 5.5032 14.9403C5.17507 15.1326 4.81214 15.2287 4.41442 15.2287ZM4.41442 14.2145C4.62654 14.2145 4.81877 14.1631 4.99112 14.0604C5.16679 13.9576 5.30599 13.8201 5.40874 13.6477C5.5148 13.4721 5.56783 13.2798 5.56783 13.071V11.9176H4.41442C4.20561 11.9176 4.01338 11.9706 3.83771 12.0767C3.66536 12.1795 3.52782 12.3187 3.42507 12.4943C3.32232 12.6667 3.27095 12.8589 3.27095 13.071C3.27095 13.2798 3.32232 13.4721 3.42507 13.6477C3.52782 13.8201 3.66536 13.9576 3.83771 14.0604C4.01338 14.1631 4.20561 14.2145 4.41442 14.2145ZM4.41442 7.89062H5.56783V6.74716C5.56783 6.53504 5.5148 6.3428 5.40874 6.17045C5.30599 5.99811 5.16679 5.86056 4.99112 5.75781C4.81877 5.65507 4.62654 5.60369 4.41442 5.60369C4.20561 5.60369 4.01338 5.65507 3.83771 5.75781C3.66536 5.86056 3.52782 5.99811 3.42507 6.17045C3.32232 6.3428 3.27095 6.53504 3.27095 6.74716C3.27095 6.95928 3.32232 7.15317 3.42507 7.32883C3.52782 7.50118 3.66536 7.63873 3.83771 7.74148C4.01338 7.84091 4.20561 7.89062 4.41442 7.89062ZM9.59482 7.89062H10.7383C10.9504 7.89062 11.1426 7.84091 11.315 7.74148C11.4873 7.63873 11.6249 7.50118 11.7276 7.32883C11.8304 7.15317 11.8817 6.95928 11.8817 6.74716C11.8817 6.53504 11.8304 6.3428 11.7276 6.17045C11.6249 5.99811 11.4873 5.86056 11.315 5.75781C11.1426 5.65507 10.9504 5.60369 10.7383 5.60369C10.5262 5.60369 10.3323 5.65507 10.1566 5.75781C9.98426 5.86056 9.84671 5.99811 9.74396 6.17045C9.64453 6.3428 9.59482 6.53504 9.59482 6.74716V7.89062ZM10.7383 14.2145C10.9504 14.2145 11.1426 14.1631 11.315 14.0604C11.4873 13.9576 11.6249 13.8201 11.7276 13.6477C11.8304 13.4721 11.8817 13.2798 11.8817 13.071C11.8817 12.8589 11.8304 12.6667 11.7276 12.4943C11.6249 12.3187 11.4873 12.1795 11.315 12.0767C11.1426 11.9706 10.9504 11.9176 10.7383 11.9176H9.59482V13.071C9.59482 13.2798 9.64453 13.4721 9.74396 13.6477C9.84671 13.8201 9.98426 13.9576 10.1566 14.0604C10.3323 14.1631 10.5262 14.2145 10.7383 14.2145ZM6.58203 10.9034H8.58061V8.90483H6.58203V10.9034ZM19.2534 4.34091L15.9721 16.5312H14.8983L18.1795 4.34091H19.2534Z" fill="#884B50"/>
</svg>
